<svg width="477" height="378" viewBox="0 0 477 378" fill="none" xmlns="http://www.w3.org/2000/svg">
<path d="M175.847 62.1943C175.368 62.1943 174.908 62.3848 174.569 62.7239C174.23 63.063 174.039 63.5229 174.039 64.0024C174.039 64.482 174.23 64.9419 174.569 65.2809C174.908 65.62 175.368 65.8105 175.847 65.8105C176.109 65.6998 176.342 65.5297 176.527 65.3137C176.712 65.0976 176.845 64.8416 176.914 64.5656C176.914 63.4096 176.529 62.1943 175.847 62.1943Z" fill="white"/>
<path d="M180.643 77.9931C180.527 77.9761 180.409 77.989 180.301 78.0305C180.192 78.072 180.095 78.1408 180.02 78.2303C179.22 79.1491 179.487 82.3207 179.576 83.3878C179.753 85.5515 180.139 88.4563 181.265 88.4563V89.5234V88.4563C182.303 88.4563 183.37 85.9665 183.132 83.121C182.895 80.2755 182.006 77.9931 180.643 77.9931Z" fill="white"/>
<path d="M182.524 97.9399C181.634 97.9399 180.656 100.459 180.656 104.253C180.656 105.439 180.656 109.322 182.524 109.322C183.561 109.322 184.836 106.921 184.836 104.135C184.836 100.608 183.828 97.9399 182.524 97.9399Z" fill="white"/>
<path d="M182.386 122.424C181.293 124.198 180.804 126.278 180.993 128.352C180.993 131.88 181.971 133.095 182.178 133.095C183.453 133.095 184.461 131.079 184.461 128.59C184.461 124.973 183.601 122.424 182.386 122.424Z" fill="white"/>
<path d="M120.147 195.695C129.133 196.4 138.174 195.831 147.002 194.005C165.648 190.517 182.319 180.189 193.745 165.046C205.335 149.633 210.67 129.952 211.856 110.478C213.041 91.0036 210.314 70.8775 201.155 53.9527C192.249 37.2458 177.607 24.3193 159.925 17.5538C151.474 14.3593 142.57 12.5284 133.545 12.1295C124.911 11.8581 116.275 12.6042 107.816 14.3526C91.2176 17.4945 75.834 22.326 61.1026 24.8158C56.3913 25.5743 51.6414 26.0691 46.875 26.2978C57.3678 52.5003 58.7313 78.762 58.7313 98.8288V104.461C58.7313 129.299 58.7313 150.759 52.4178 176.991C65.6969 181.23 79.6577 186.417 94.7448 190.656C103.042 193.102 111.544 194.789 120.147 195.695ZM147.002 17.5538C147.654 17.5538 147.565 17.5538 147.624 18.2355C148.098 22.326 150.381 22.9781 154.797 22.8002C157.524 22.8002 160.933 22.0592 163.008 23.6302C163.31 23.8542 163.558 24.1439 163.733 24.4777C163.907 24.8114 164.004 25.1804 164.015 25.5568C164.038 26.04 163.968 26.5231 163.808 26.9796C164.522 27.0304 165.209 27.2765 165.794 27.6909C166.411 28.2178 166.914 28.8658 167.271 29.5949C167.628 30.324 167.831 31.1187 167.869 31.9296C168.88 31.4951 169.993 31.351 171.082 31.5133C172.171 31.6756 173.193 32.1379 174.034 32.8484C174.631 33.5021 175.055 34.2947 175.267 35.1541C175.479 36.0135 175.473 36.9124 175.249 37.7688C176.426 37.3074 177.719 37.234 178.94 37.5592C180.161 37.8845 181.246 38.5914 182.037 39.5769C182.693 40.5706 183.043 41.7353 183.043 42.9263C183.043 44.1173 182.693 45.282 182.037 46.2757C182.79 46.0582 183.591 46.0719 184.336 46.315C185.081 46.5581 185.736 47.0194 186.216 47.6392C186.558 48.3511 186.712 49.1382 186.666 49.9264C186.619 50.7146 186.373 51.4779 185.949 52.1446C186.917 51.9761 187.912 52.0811 188.824 52.4476C189.735 52.8142 190.526 53.4278 191.107 54.2194C191.77 55.2525 192.08 56.4732 191.989 57.6975C191.898 58.9218 191.412 60.0834 190.603 61.0072C192.352 61.6296 194.753 62.7263 195.375 64.3566C195.801 65.224 195.971 66.1944 195.866 67.1547C195.761 68.115 195.385 69.0258 194.782 69.7808C196.161 69.7286 197.53 70.035 198.754 70.6701C199.29 70.968 199.761 71.3709 200.138 71.8547C200.515 72.3385 200.79 72.8933 200.948 73.4859C201.338 74.7276 201.358 76.056 201.005 77.3088C200.652 78.5617 199.942 79.6846 198.962 80.5404C200.006 80.7758 200.935 81.3708 201.585 82.2215C202.235 83.0722 202.566 84.1244 202.519 85.194C202.519 86.9132 200.977 89.0473 199.555 90.5887C200.687 90.8514 201.753 91.3485 202.682 92.0479C203.611 92.7473 204.383 93.6335 204.949 94.6494C205.433 95.7445 205.606 96.9516 205.449 98.1385C205.292 99.3253 204.812 100.446 204.06 101.378C203.26 102.341 202.399 103.252 201.481 104.105C202.548 104.668 204.801 106.269 205.068 107.988C205.455 109.133 205.471 110.37 205.114 111.525C204.758 112.679 204.047 113.692 203.082 114.42C202.819 114.688 202.52 114.918 202.193 115.102C202.813 115.942 203.219 116.922 203.374 117.955C203.529 118.988 203.429 120.044 203.082 121.03C202.829 121.708 202.434 122.323 201.923 122.835C201.411 123.346 200.796 123.741 200.118 123.994C201.103 124.986 201.804 126.225 202.148 127.58C202.492 128.935 202.466 130.358 202.074 131.7C201.775 132.518 201.247 133.232 200.553 133.758C199.86 134.283 199.029 134.598 198.161 134.664C198.424 135.979 198.406 137.334 198.11 138.642C197.814 139.949 197.246 141.179 196.442 142.253C195.983 142.877 195.397 143.398 194.723 143.781C194.049 144.164 193.302 144.401 192.53 144.476C193.009 145.504 193.237 146.631 193.196 147.765C193.154 148.898 192.845 150.006 192.293 150.997C191.989 151.439 191.594 151.812 191.133 152.088C190.673 152.364 190.159 152.538 189.625 152.597C190.29 153.522 190.682 154.616 190.756 155.754C190.829 156.891 190.581 158.026 190.04 159.029C189.503 159.801 188.776 160.422 187.93 160.832C187.084 161.242 186.147 161.427 185.208 161.371C185.748 162.463 185.938 163.695 185.752 164.899C185.566 166.103 185.014 167.22 184.171 168.099C183.567 168.689 182.824 169.118 182.011 169.346C181.198 169.574 180.34 169.593 179.517 169.403C179.657 170.35 179.565 171.316 179.25 172.219C178.936 173.122 178.407 173.936 177.709 174.591C176.869 175.372 175.838 175.92 174.72 176.18C173.602 176.44 172.436 176.403 171.337 176.073C171.543 177.085 171.374 178.139 170.862 179.037C169.795 180.874 167.483 181.319 164.786 181.793C162.114 181.994 159.496 182.656 157.05 183.75C155.761 184.795 154.846 186.23 154.441 187.84C154.441 188.848 153.937 189.203 153.789 189.174C153.641 189.144 153.315 188.048 153.552 187.455C154.012 185.252 155.216 183.274 156.961 181.853C159.299 180.531 161.88 179.694 164.549 179.392C166.653 179.037 168.491 178.711 169.025 177.762C169.194 177.226 169.255 176.662 169.204 176.102C169.153 175.542 168.991 174.998 168.728 174.502C168.643 174.274 168.632 174.026 168.696 173.792C168.759 173.558 168.895 173.35 169.084 173.197C169.282 173.067 169.514 172.998 169.751 172.998C169.988 172.998 170.22 173.067 170.418 173.197C171.275 173.857 172.333 174.199 173.414 174.167C174.494 174.134 175.53 173.729 176.346 173.02C177.001 172.299 177.386 171.373 177.434 170.4C177.483 169.427 177.192 168.467 176.613 167.684C176.486 167.448 176.444 167.175 176.492 166.911C176.541 166.648 176.677 166.408 176.879 166.232C177.085 166.053 177.348 165.954 177.62 165.954C177.893 165.954 178.156 166.053 178.361 166.232C178.618 166.553 178.938 166.816 179.302 167.007C179.666 167.197 180.065 167.31 180.475 167.338C180.885 167.365 181.296 167.308 181.682 167.169C182.068 167.029 182.421 166.811 182.719 166.528C183.405 165.655 183.727 164.55 183.616 163.445C183.506 162.34 182.971 161.32 182.126 160.6C181.974 160.4 181.892 160.155 181.892 159.904C181.892 159.652 181.974 159.408 182.126 159.207C182.27 159.006 182.473 158.856 182.707 158.776C182.941 158.696 183.193 158.691 183.43 158.762C184.256 159.164 185.189 159.289 186.092 159.118C186.994 158.947 187.818 158.49 188.439 157.814C189.358 156.362 188.439 154.02 186.424 151.708C186.252 151.505 186.158 151.248 186.158 150.982C186.158 150.716 186.252 150.459 186.424 150.256C186.575 150.031 186.804 149.871 187.067 149.805C187.33 149.739 187.607 149.773 187.846 149.9C189.299 150.582 190.307 150.522 190.811 149.722C191.258 148.747 191.401 147.66 191.221 146.602C191.042 145.545 190.547 144.566 189.803 143.794C189.605 143.613 189.479 143.367 189.446 143.1C189.413 142.834 189.477 142.565 189.625 142.341C189.771 142.111 189.995 141.941 190.255 141.859C190.515 141.778 190.796 141.791 191.048 141.897C191.704 142.212 192.454 142.275 193.154 142.072C193.854 141.87 194.455 141.417 194.842 140.8C195.589 139.858 196.057 138.726 196.193 137.531C196.33 136.337 196.128 135.128 195.612 134.042C195.474 133.852 195.398 133.625 195.392 133.39C195.386 133.156 195.452 132.925 195.581 132.729C195.71 132.532 195.895 132.38 196.112 132.292C196.33 132.203 196.569 132.183 196.798 132.234C197.419 132.49 198.117 132.491 198.738 132.235C199.36 131.98 199.856 131.489 200.118 130.87C200.425 129.538 200.263 128.14 199.658 126.914C199.053 125.688 198.042 124.709 196.798 124.142C196.565 124.011 196.385 123.804 196.288 123.555C196.191 123.307 196.182 123.032 196.264 122.779C196.334 122.52 196.496 122.295 196.72 122.148C196.944 122 197.214 121.94 197.48 121.978C198.219 122.18 199.007 122.105 199.695 121.767C200.383 121.428 200.923 120.85 201.214 120.14C201.441 119.171 201.34 118.153 200.927 117.247C200.514 116.34 199.813 115.596 198.932 115.131C198.721 115.003 198.56 114.808 198.474 114.576C198.388 114.345 198.382 114.091 198.458 113.857C198.589 113.553 198.829 113.309 199.13 113.172C199.431 113.035 199.773 113.015 200.088 113.116C200.315 113.23 200.577 113.257 200.823 113.192C201.069 113.126 201.282 112.973 201.422 112.76C202.05 112.224 202.521 111.527 202.782 110.743C203.043 109.96 203.085 109.12 202.904 108.314C202.56 107.601 202.033 106.993 201.377 106.55C200.721 106.107 199.959 105.847 199.169 105.794C198.939 105.803 198.712 105.739 198.521 105.611C198.329 105.483 198.183 105.299 198.102 105.083C198.017 104.865 198 104.627 198.053 104.4C198.106 104.172 198.226 103.966 198.399 103.808C199.737 102.609 201.003 101.332 202.193 99.9848C202.701 99.3881 203.033 98.6622 203.154 97.8878C203.274 97.1133 203.177 96.3207 202.874 95.5979C202.251 94.5959 201.375 93.7753 200.335 93.2187C199.294 92.662 198.126 92.3887 196.946 92.4264C196.714 92.4097 196.491 92.3249 196.307 92.1826C196.122 92.0402 195.984 91.8467 195.909 91.6261C195.839 91.4112 195.836 91.1804 195.9 90.9637C195.963 90.747 196.09 90.5544 196.264 90.4108C198.191 88.7213 200.266 86.2315 200.177 85.3422C200.177 83.7713 199.94 82.3782 195.879 82.3782C195.623 82.3987 195.368 82.326 195.161 82.1736C194.954 82.0211 194.809 81.799 194.753 81.5482C194.678 81.3059 194.686 81.0452 194.778 80.8085C194.869 80.5718 195.038 80.3729 195.257 80.244C199.199 77.932 199.199 75.7386 198.695 73.9305C198.623 73.6294 198.488 73.347 198.299 73.1017C198.11 72.8565 197.871 72.6541 197.598 72.5078C195.634 71.7465 193.456 71.7465 191.492 72.5078C191.231 72.6025 190.943 72.5969 190.685 72.4922C190.427 72.3874 190.217 72.1908 190.096 71.9404C189.974 71.69 189.95 71.4034 190.027 71.136C190.104 70.8686 190.278 70.6392 190.514 70.4922C194.19 67.7653 193.656 66.4018 193.152 65.068C192.826 64.238 190.366 63.1413 188.232 62.5781C188.034 62.5319 187.853 62.4331 187.707 62.2922C187.561 62.1513 187.455 61.9736 187.402 61.7778C187.353 61.585 187.354 61.3827 187.406 61.1906C187.458 60.9984 187.559 60.8229 187.698 60.6811C190.396 57.9245 189.595 56.0868 189.121 55.4347C188.647 54.7826 187.876 53.6266 183.608 54.753C183.366 54.8182 183.11 54.8012 182.879 54.7046C182.648 54.608 182.456 54.4373 182.333 54.2194C182.202 54.003 182.146 53.7495 182.172 53.4979C182.199 53.2462 182.308 53.0103 182.482 52.8263C183.934 51.3739 184.586 49.388 184.201 48.7655C183.815 48.1431 182.689 48.0245 179.517 49.1509C179.27 49.2329 179.002 49.2309 178.755 49.1452C178.509 49.0594 178.297 48.8947 178.154 48.6766C177.99 48.4757 177.901 48.2244 177.901 47.9652C177.901 47.7061 177.99 47.4548 178.154 47.2539C178.154 47.2539 181.918 43.4598 179.992 40.7922C178.065 38.1245 173.797 40.7922 173.767 40.7922C173.551 40.9124 173.302 40.96 173.056 40.928C172.811 40.896 172.582 40.786 172.404 40.6143C172.22 40.4515 172.094 40.233 172.046 39.9922C171.998 39.7514 172.03 39.5015 172.137 39.2805C173.145 37.2649 173.174 35.4272 172.137 34.449C171.099 33.4709 169.173 33.5302 167.039 34.6269C166.868 34.7287 166.674 34.7825 166.476 34.7825C166.277 34.7825 166.083 34.7287 165.912 34.6269C165.742 34.5216 165.602 34.3727 165.509 34.1955C165.415 34.0183 165.37 33.8194 165.379 33.6191C165.379 32.8188 165.379 30.4179 164.193 29.6176C163.798 29.4023 163.354 29.2895 162.904 29.2895C162.453 29.2895 162.01 29.4023 161.614 29.6176C161.371 29.7051 161.106 29.7086 160.861 29.6277C160.616 29.5468 160.404 29.386 160.261 29.1711C160.118 28.9562 160.051 28.6995 160.07 28.442C160.09 28.1845 160.195 27.9409 160.37 27.7502C160.952 27.2089 161.337 26.4895 161.466 25.705C159.593 24.5973 157.384 24.1977 155.242 24.5787C151.211 24.7565 147.15 24.2526 146.349 18.6505C146.527 18.0577 146.527 17.5242 147.002 17.5538ZM162.296 171.271C162.296 170.708 162.296 169.552 163.423 169.552C164.549 169.552 164.519 170.648 164.519 171.36C164.555 171.605 164.555 171.855 164.519 172.101C164.461 172.252 164.36 172.384 164.229 172.479C164.097 172.573 163.94 172.628 163.778 172.634C163.585 172.68 163.383 172.678 163.191 172.628C162.998 172.577 162.821 172.481 162.675 172.346C162.529 172.212 162.418 172.043 162.352 171.856C162.286 171.668 162.267 171.467 162.296 171.271ZM170.507 51.9964C170.438 52.1797 170.317 52.339 170.159 52.4548C170.001 52.5706 169.813 52.6379 169.617 52.6485C169.384 52.6835 169.145 52.6633 168.92 52.5893C168.696 52.5153 168.492 52.3896 168.324 52.2224C168.157 52.0552 168.031 51.8511 167.957 51.6265C167.883 51.402 167.863 51.1632 167.898 50.9293C167.898 50.2179 167.898 48.7359 169.291 48.7359C170.684 48.7359 170.655 50.129 170.655 51.0479C170.657 51.37 170.607 51.6904 170.507 51.9964ZM171.455 159.77C171.506 160.084 171.506 160.405 171.455 160.719C171.39 160.904 171.27 161.066 171.111 161.182C170.953 161.298 170.763 161.364 170.566 161.371C170.324 161.414 170.075 161.397 169.841 161.323C169.607 161.248 169.395 161.118 169.223 160.942C169.051 160.767 168.924 160.553 168.853 160.318C168.782 160.082 168.77 159.833 168.817 159.592C168.817 158.881 168.817 157.399 170.24 157.399C171.663 157.399 171.455 158.851 171.455 159.77ZM182.541 111.456C181.059 111.456 178.539 110.507 178.539 104.253C178.539 100.163 179.606 95.8054 182.541 95.8054C185.475 95.8054 186.957 99.0659 186.957 104.134C186.957 107.662 185.268 111.456 182.541 111.456ZM186.602 128.647C186.602 132.501 184.734 135.287 182.155 135.287C180.11 135.287 178.806 132.649 178.806 128.41C178.806 125.594 179.547 120.289 182.363 120.289C185.179 120.289 186.602 123.342 186.602 128.647ZM181.592 90.5887H181.296C178.065 90.5887 177.709 86.1722 177.472 83.5638C176.966 81.28 177.303 78.8902 178.421 76.8353C178.924 76.2718 179.624 75.9219 180.377 75.8572H180.673C182.215 75.8572 184.882 76.7761 185.416 82.9413C185.683 86.4389 184.319 90.3515 181.592 90.5887ZM175.872 67.0539C175.062 67.0539 174.285 66.7322 173.713 66.1597C173.14 65.5871 172.819 64.8106 172.819 64.0009C172.819 63.1912 173.14 62.4146 173.713 61.8421C174.285 61.2695 175.062 60.9479 175.872 60.9479C177.443 60.9479 178.154 62.756 178.154 64.5641C178.072 65.1621 177.81 65.7209 177.402 66.1659C176.994 66.6108 176.46 66.9206 175.872 67.0539ZM175.872 143.794C177.443 143.794 178.154 145.632 178.154 147.41C178.072 148.008 177.81 148.567 177.402 149.012C176.994 149.457 176.46 149.767 175.872 149.9C175.062 149.9 174.285 149.578 173.713 149.006C173.14 148.433 172.819 147.657 172.819 146.847C172.819 146.037 173.14 145.261 173.713 144.688C174.285 144.115 175.062 143.794 175.872 143.794ZM164.015 39.2508C164.066 39.4953 164.066 39.7474 164.015 39.9919C163.958 40.1435 163.856 40.2749 163.725 40.3697C163.593 40.4645 163.436 40.5187 163.274 40.5254C163.089 40.5497 162.902 40.5312 162.725 40.4713C162.549 40.4114 162.388 40.3117 162.256 40.1799C162.125 40.048 162.025 39.8877 161.965 39.7112C161.905 39.5347 161.886 39.3467 161.911 39.1619C161.911 38.5988 161.911 37.4428 163.067 37.4428C164.223 37.4428 163.897 38.5395 163.897 39.2508H164.015ZM119.021 18.9173C121.174 18.4636 123.351 18.1271 125.542 17.9095H126.994C128.002 17.9095 128.98 17.7613 129.958 17.7613C145.223 17.7613 166.031 38.0949 166.031 101.467C166.031 155.65 156.131 190.863 127.883 190.863C126.253 190.863 124.534 190.863 122.755 190.567C113.063 188.848 92.4032 184.076 92.4032 101.823C92.4329 36.1978 108.409 22.1185 119.021 18.9173ZM60.0059 170.085L63.4442 170.737C63.4442 168.603 63.5331 166.528 63.711 164.513C62.3771 164.513 61.0433 164.335 59.6798 164.216C58.3163 164.098 58.4645 162.201 59.6798 162.319C60.8951 162.438 62.4068 162.527 63.7702 162.586C63.7702 159.859 63.9481 157.221 64.0074 154.583C63.296 154.583 62.555 154.583 61.8139 154.583C60.569 154.583 60.569 152.567 61.8139 152.656C62.5846 152.656 63.3256 152.656 64.0666 152.656C64.0666 150.552 64.0666 148.447 64.2148 146.373H62.2882C61.0729 146.373 61.0729 144.357 62.2882 144.446H64.2445C64.2445 142.193 64.2445 139.911 64.2445 137.599L62.7624 137.451C61.5472 137.451 61.5175 135.435 62.7624 135.554H64.2741C64.2741 133.657 64.2741 131.671 64.2741 129.626C63.7509 129.655 63.2264 129.655 62.7032 129.626C61.4583 129.626 61.4583 127.61 62.7032 127.729H64.2741C64.2741 125.832 64.2741 123.905 64.2741 121.8C63.5627 121.8 62.8217 121.8 62.0807 121.8C60.8654 121.8 60.8654 119.755 62.0807 119.874C62.8217 119.874 63.5628 119.874 64.3038 119.874V113.946C63.7702 113.946 63.2071 113.946 62.6735 113.946C61.4286 113.946 61.4286 111.93 62.6735 112.019C63.2367 112.019 63.7702 112.019 64.3038 112.019V106.239C63.5628 106.239 62.8514 106.239 62.0807 106.091C61.3101 105.943 60.8654 104.075 62.0807 104.194H64.3038V98.2656H63.2663C62.0511 98.2656 62.0511 96.2204 63.2663 96.339H64.3038V90.4404H63.2663C62.0511 90.4404 62.0511 88.4249 63.2663 88.5434H64.3038C64.3038 86.3204 64.3038 84.1566 64.3038 82.0818H63.296C62.0807 82.0818 62.0807 80.0662 63.296 80.1847H64.2741C64.2741 78.2877 64.2741 76.4204 64.2741 74.6123H62.14C60.9247 74.6123 60.9247 72.5967 62.14 72.6856C62.8514 72.6856 63.5627 72.6856 64.2445 72.8338C64.2445 70.9368 64.2445 69.0398 64.2445 67.2317C63.7702 67.2317 63.296 67.2317 62.8217 67.2317C61.5768 67.2317 61.5768 65.2162 62.8217 65.3051C63.296 65.3051 63.7406 65.3051 64.1852 65.3051C64.1852 63.4377 64.1852 61.5703 64.1852 59.7919C63.4738 59.7919 62.7624 59.7919 62.0214 59.7919C60.8062 59.7919 60.8062 57.7763 62.0214 57.8652C62.7222 57.9101 63.4251 57.9101 64.1259 57.8652C64.1259 55.9386 64.1259 54.0416 63.9777 52.1742C63.1291 52.2342 62.2773 52.2342 61.4286 52.1742C60.2133 52.1742 60.2133 50.1883 61.4286 50.2476C62.2678 50.2922 63.1089 50.2922 63.9481 50.2476C63.9481 47.9949 63.7999 45.8015 63.7406 43.6377C62.8217 43.6377 61.9325 43.6377 60.984 43.6377C60.7575 43.5978 60.5523 43.4794 60.4044 43.3032C60.2565 43.127 60.1755 42.9044 60.1755 42.6744C60.1755 42.4444 60.2565 42.2217 60.4044 42.0455C60.5523 41.8694 60.7575 41.7509 60.984 41.711C61.8854 41.7216 62.7865 41.6721 63.6813 41.5628L63.5035 35.1901C61.9325 35.3975 60.3615 35.6643 58.7906 35.8125C57.2196 35.9607 57.3382 33.6487 58.7906 33.5005C71.2931 32.3326 83.5567 29.3366 95.1895 24.6083C96.5826 24.0748 97.1754 26.2978 95.8119 26.8314C86.151 30.7532 76.0635 33.5288 65.7562 35.1011C65.7562 37.2353 65.7562 39.3991 65.9637 41.5628L68.5128 41.2071C69.6984 40.9997 70.2319 42.867 69.0167 43.0449L66.0526 43.4895C66.0526 45.6533 66.0526 47.8763 66.2304 50.129L68.4831 49.8919C69.728 49.7437 69.6984 51.6407 68.4831 51.7889L66.2897 52.0557C66.2897 53.8934 66.2897 55.7904 66.4379 57.717L68.572 57.4799C69.7873 57.3021 69.7873 59.2287 68.572 59.3769L66.4675 59.6437C66.4675 61.4814 66.4675 63.3784 66.4675 65.3051C67.1789 65.3051 67.9199 65.3051 68.661 65.3051C69.9059 65.1569 69.8762 67.0835 68.661 67.2021C67.9199 67.2021 67.2086 67.2021 66.4972 67.2021C66.4972 69.0102 66.4972 70.9072 66.4972 72.8042C67.1196 72.8042 67.7125 72.8042 68.3646 72.8042C69.5798 72.8042 69.5798 74.6123 68.3646 74.7308C67.7421 74.7308 67.1196 74.7308 66.5268 74.7308C66.5268 76.5389 66.5268 78.4359 66.5268 80.3626C67.1881 80.4063 67.8515 80.4063 68.5128 80.3626C69.7577 80.3626 69.728 82.1707 68.5128 82.2892C67.831 82.2892 67.1789 82.2892 66.5268 82.2892C66.5268 84.3937 66.5268 86.5575 66.5268 88.7806C67.1094 88.8102 67.6931 88.8102 68.2756 88.7806C69.4909 88.7806 69.4909 90.559 68.2756 90.6776C67.7034 90.7217 67.1287 90.7217 66.5565 90.6776V96.8725C67.3067 96.9163 68.0589 96.9163 68.8092 96.8725C70.0541 96.8725 70.0244 98.6806 68.8092 98.7991C67.5939 98.9177 67.2975 98.7991 66.5565 98.7991V104.549C67.1193 104.579 67.6832 104.579 68.246 104.549C69.4613 104.549 69.4613 106.358 68.246 106.476C67.6832 106.505 67.1193 106.505 66.5565 106.476V112.404C67.2975 112.404 68.0385 112.404 68.8092 112.404C70.0541 112.404 70.0244 114.212 68.8092 114.331C67.5939 114.449 67.2975 114.331 66.5565 114.331C66.5565 116.376 66.5565 118.392 66.5565 120.259C67.0307 120.259 67.5346 120.259 68.0385 120.259C69.2538 120.259 69.2538 122.067 68.0385 122.186C67.5346 122.186 67.0307 122.186 66.5565 122.186C66.5565 124.172 66.5565 126.098 66.5565 128.114L68.8685 127.936C70.0837 127.936 70.0837 129.714 68.8685 129.863L66.5268 130.041C66.5268 132.086 66.5268 134.101 66.5268 135.969C67.326 136.028 68.1285 136.028 68.9277 135.969C70.143 135.969 70.143 137.777 68.9277 137.895C68.1182 137.94 67.3068 137.94 66.4972 137.895V144.713C67.505 144.713 68.5424 144.713 69.4613 144.713C70.3801 144.713 70.6765 146.521 69.4613 146.639C68.4247 146.699 67.3856 146.699 66.349 146.639C66.349 148.685 66.349 150.73 66.349 152.775H68.1867C69.4316 152.775 69.402 154.553 68.1867 154.672C67.5643 154.672 66.9122 154.672 66.2897 154.672C66.2897 157.31 66.1415 159.978 66.0526 162.734C66.8529 162.734 67.6828 162.734 68.5128 162.734C69.3427 162.734 69.728 164.542 68.5128 164.661C67.2975 164.779 66.8232 164.661 65.9637 164.661C65.9637 166.795 65.9637 169.018 65.6969 171.3C76.628 173.208 87.4135 175.872 97.9757 179.274C99.3688 179.778 98.776 181.971 97.3532 181.497C84.9238 177.555 72.2237 174.523 59.3538 172.427C57.931 171.923 58.5535 169.729 60.0059 169.996V170.085ZM77.9682 76.4204C78.9463 76.4204 79.302 77.8135 79.302 78.7323C79.3529 79.0465 79.3529 79.3667 79.302 79.6809C79.2365 79.8664 79.1167 80.0278 78.958 80.1441C78.7994 80.2605 78.6094 80.3263 78.4128 80.3329C78.1789 80.368 77.9401 80.3477 77.7155 80.2738C77.491 80.1998 77.2869 80.0741 77.1197 79.9069C76.9525 79.7397 76.8268 79.5356 76.7528 79.311C76.6788 79.0864 76.6585 78.8476 76.6936 78.6138C76.5454 77.8135 76.5454 76.3314 77.9682 76.3314V76.4204ZM75.9526 60.0587C75.9526 58.962 76.7529 57.3317 77.9682 57.3317C79.1834 57.3317 79.9837 58.962 79.9837 60.0587C79.9837 60.5932 79.7714 61.1059 79.3934 61.4839C79.0154 61.8619 78.5027 62.0742 77.9682 62.0742C77.4336 62.0742 76.9209 61.8619 76.5429 61.4839C76.1649 61.1059 75.9526 60.5932 75.9526 60.0587ZM78.3831 93.3156C79.1834 93.3156 79.4798 94.3827 79.4798 95.1237C79.5302 95.3681 79.5302 95.6203 79.4798 95.8647C79.4207 96.013 79.3185 96.1403 79.1865 96.2301C79.0544 96.3199 78.8985 96.3681 78.7388 96.3686C78.554 96.3929 78.3661 96.3744 78.1896 96.3145C78.0131 96.2546 77.8527 96.1549 77.7209 96.0231C77.5891 95.8913 77.4894 95.7309 77.4295 95.5544C77.3695 95.3779 77.351 95.1899 77.3754 95.0051C77.2568 94.3827 77.2568 93.2267 78.3831 93.2267V93.3156ZM79.8948 120.289C79.9306 120.524 79.9306 120.764 79.8948 121C79.8443 121.156 79.7451 121.292 79.6118 121.388C79.4785 121.484 79.318 121.535 79.1538 121.534C78.9678 121.564 78.7771 121.55 78.5976 121.493C78.4181 121.435 78.255 121.336 78.1216 121.202C77.9883 121.069 77.8887 120.906 77.8311 120.726C77.7735 120.547 77.7595 120.356 77.7903 120.17C77.7903 119.637 77.7903 118.481 78.9167 118.481C80.043 118.481 79.8948 119.548 79.8948 120.289ZM78.7981 132.145C79.5984 132.145 79.8948 133.212 79.8948 133.953C79.9306 134.189 79.9306 134.429 79.8948 134.664C79.8443 134.821 79.7451 134.957 79.6118 135.053C79.4785 135.149 79.318 135.2 79.1538 135.198C78.9678 135.229 78.7771 135.215 78.5976 135.157C78.4181 135.1 78.255 135 78.1216 134.867C77.9883 134.733 77.8887 134.57 77.8311 134.391C77.7735 134.211 77.7595 134.021 77.7903 133.835C77.5828 133.36 77.5828 132.204 78.7092 132.204L78.7981 132.145ZM79.1538 144.861C80.1319 144.861 80.4876 146.224 80.4876 147.173C80.4918 147.485 80.4417 147.796 80.3394 148.092C80.274 148.277 80.1541 148.439 79.9955 148.555C79.8368 148.671 79.6468 148.737 79.4502 148.744C79.2164 148.779 78.9775 148.759 78.753 148.685C78.5284 148.611 78.3243 148.485 78.1571 148.318C77.9899 148.151 77.8642 147.947 77.7902 147.722C77.7162 147.497 77.696 147.259 77.731 147.025C77.6421 146.343 77.6421 144.92 79.0649 144.92L79.1538 144.861ZM81.0508 158.792C82.2661 158.792 83.0664 160.422 83.0664 161.519C83.0664 162.616 82.6514 164.483 81.3176 164.483C79.9837 164.483 79.0352 162.616 79.0352 161.519C79.0352 160.422 79.8948 158.851 80.9619 158.851L81.0508 158.792ZM81.3176 44.4083C80.5079 44.4083 79.7313 44.0867 79.1588 43.5141C78.5862 42.9416 78.2646 42.1651 78.2646 41.3553C78.2646 40.5456 78.5862 39.7691 79.1588 39.1965C79.7313 38.624 80.5079 38.3023 81.3176 38.3023C82.9182 38.3023 83.6295 40.1104 83.6295 41.9185C83.552 42.5433 83.2775 43.1272 82.8458 43.5855C82.4141 44.0438 81.8477 44.3528 81.2287 44.4676L81.3176 44.4083Z" fill="white"/>
<path d="M28.8832 182.121C50.3431 182.121 91.6624 204.292 126.698 204.292C173.086 204.292 221.074 174.947 221.074 101.468C221.074 37.5032 177.828 4.09808 131.885 4.09808C95.2785 4.09808 77.257 19.0667 44.2371 19.0667C40.8015 19.2521 37.3558 19.0932 33.9518 18.5924C34.6494 16.4927 34.8434 14.2583 34.5181 12.0698C34.1929 9.88124 33.3574 7.79988 32.0793 5.99379C30.8012 4.1877 29.1163 2.70753 27.1605 1.67281C25.2048 0.638089 23.0331 0.0778357 20.8209 0.0372972C18.8373 -0.108611 16.8455 0.174676 14.9812 0.867868C13.117 1.56106 11.424 2.64788 10.0175 4.0543C8.61112 5.46072 7.52431 7.15372 6.83111 9.018C6.13792 10.8823 5.85463 12.8741 6.00054 14.8577C6.00054 31.0415 25.5042 32.9385 40.3838 33.1164C50.521 53.8649 50.936 79.2078 51.1138 101.468C51.4398 139.497 48.6833 158.882 46.2527 168.545C37.9064 166.346 29.3312 165.132 20.7024 164.929C7.18617 164.84 0.398438 174.414 0.398438 183.306C0.418721 186.903 1.82631 190.353 4.32779 192.937C6.82928 195.521 10.2316 197.041 13.8257 197.178C15.8405 197.324 17.8629 197.034 19.7558 196.329C21.6487 195.624 23.3677 194.519 24.7961 193.091C26.2244 191.663 27.3287 189.944 28.0339 188.051C28.7392 186.158 29.0288 184.135 28.8832 182.121ZM4.87419 182.121C4.84058 180.477 5.20597 178.85 5.93903 177.379C6.67209 175.907 7.75096 174.636 9.08318 173.673C14.5964 169.671 21.7991 170.057 28.4386 170.887C35.4781 172.01 42.4164 173.695 49.1871 175.926L50.1653 176.222C56.4195 150.346 56.4195 129.034 56.3602 104.402V98.9189C56.3602 78.8817 54.9671 52.62 44.5039 26.5361L39.8207 26.8029C33.3256 27.2366 26.8019 26.7678 20.4356 25.4098C17.3152 24.7498 14.5131 23.0455 12.4919 20.5784C11.5707 19.2914 10.9896 17.7927 10.8023 16.2212C10.6006 14.8007 10.6508 13.3559 10.9506 11.9529C11.2186 10.6369 11.7548 9.3903 12.5257 8.29063C13.2966 7.19095 14.2857 6.2618 15.4313 5.56105C16.577 4.86031 17.8547 4.403 19.1848 4.2176C20.5149 4.03219 21.8689 4.12268 23.1625 4.48341C24.2899 4.80015 25.3389 5.34862 26.2422 6.09378C27.1456 6.83894 27.8836 7.76439 28.409 8.81096C28.8354 9.74698 29.0961 10.7499 29.1796 11.775C29.2219 12.8412 29.0296 13.9036 28.6165 14.8873C28.2594 15.6649 27.748 16.3617 27.1133 16.9356C26.4787 17.5094 25.734 17.9483 24.9246 18.2255C24.1151 18.5027 23.2577 18.6125 22.4045 18.5482C21.5513 18.4839 20.7201 18.2468 19.9613 17.8514C18.8908 17.3495 18.0623 16.4443 17.6569 15.3336C17.2515 14.2228 17.3021 12.9968 17.7976 11.9232C18.1603 11.2481 18.6785 10.669 19.3092 10.2337C19.4223 10.1418 19.553 10.074 19.6933 10.0345C19.8335 9.99503 19.9804 9.98469 20.1248 10.0041C20.2692 10.0236 20.4081 10.0724 20.5329 10.1475C20.6577 10.2227 20.7658 10.3227 20.8506 10.4412C21.019 10.6708 21.0915 10.9569 21.0528 11.239C21.0141 11.5212 20.8672 11.7772 20.6431 11.9529C20.2694 12.1959 19.9553 12.5201 19.7242 12.9014C19.4987 13.4598 19.5031 14.0846 19.7362 14.6398C19.9694 15.195 20.4126 15.6356 20.9691 15.8655C21.8932 16.3071 22.9452 16.4018 23.9332 16.1322C24.4784 15.982 24.9877 15.7235 25.4308 15.3721C25.8738 15.0207 26.2416 14.5837 26.512 14.087C26.7937 13.4633 26.9354 12.7854 26.9269 12.1011C26.9382 11.3013 26.7974 10.5067 26.512 9.75947C26.1155 8.98511 25.5633 8.30104 24.8901 7.75017C24.2168 7.19929 23.4369 6.79351 22.5994 6.55827C21.5876 6.27772 20.5284 6.21106 19.4895 6.36253C18.4505 6.514 17.4545 6.88027 16.5649 7.438C15.6753 7.99574 14.9117 8.73269 14.3227 9.60189C13.7337 10.4711 13.3323 11.4535 13.144 12.4864C12.933 13.6925 12.933 14.9261 13.144 16.1322C13.2905 17.3133 13.7398 18.4364 14.4482 19.3927C16.142 21.3556 18.4326 22.7091 20.9691 23.246C27.122 24.5527 33.4261 25.0016 39.7021 24.5799C46.7399 24.4066 53.7593 23.7828 60.7174 22.7125C75.2414 20.2523 90.5953 15.4209 107.372 12.2197C115.975 10.4243 124.76 9.64835 133.545 9.90767C142.774 10.3035 151.88 12.1748 160.518 15.4505C178.764 22.3751 193.885 35.674 203.082 52.8868C212.597 70.2563 215.531 90.8863 214.079 110.627C212.626 130.368 207.321 150.494 195.464 166.381C183.719 181.961 166.588 192.603 147.417 196.23C138.406 198.105 129.173 198.684 119.999 197.949C111.253 197.041 102.611 195.324 94.1818 192.821C77.7312 188.227 62.733 182.506 48.5943 178.149C41.921 175.959 35.0812 174.314 28.1422 173.228C21.6509 172.369 14.9521 172.191 10.3577 175.57C9.30894 176.296 8.45849 177.273 7.88384 178.412C7.30919 179.551 7.02859 180.816 7.06761 182.091C7.00733 183.294 7.20047 184.496 7.63449 185.619C8.06852 186.742 8.73375 187.762 9.58708 188.612C10.4481 189.302 11.4444 189.804 12.5115 190.084C13.5786 190.365 14.6928 190.419 15.782 190.242C16.7421 190.231 17.687 190.001 18.5447 189.569C19.4025 189.138 20.1506 188.516 20.732 187.752C21.1799 187.043 21.4164 186.22 21.4137 185.381C21.4279 184.483 21.3283 183.587 21.1173 182.713C21.001 182 20.7101 181.326 20.2706 180.752C19.831 180.178 19.2564 179.722 18.5979 179.423C18.0743 179.223 17.5164 179.127 16.956 179.142C16.3956 179.157 15.8436 179.283 15.3316 179.511C14.8197 179.74 14.3577 180.067 13.9722 180.474C13.5867 180.881 13.2851 181.36 13.0847 181.883C12.5512 183.632 13.4997 184.492 14.3296 184.67C14.8117 184.807 15.3104 184.877 15.8116 184.877C16.098 184.852 16.3827 184.941 16.6045 185.124C16.8262 185.307 16.9673 185.569 16.9973 185.855C17.0227 186.129 16.9413 186.402 16.7701 186.618C16.5989 186.833 16.3511 186.974 16.0784 187.011H15.8116C15.1012 187.019 14.3931 186.929 13.7071 186.745C12.7282 186.474 11.8837 185.851 11.3359 184.996C10.9992 184.412 10.7978 183.76 10.7465 183.088C10.6952 182.416 10.7953 181.741 11.0395 181.113C11.6255 179.674 12.6665 178.466 14.0036 177.674C14.7762 177.196 15.6483 176.902 16.5527 176.815C17.5636 176.795 18.5692 176.966 19.5167 177.319C20.5424 177.726 21.4491 178.385 22.1536 179.234C22.858 180.084 23.3375 181.097 23.5479 182.18C23.8074 183.237 23.9368 184.322 23.9332 185.411C23.9098 186.681 23.5409 187.921 22.8661 188.997C22.0947 190.066 21.0852 190.941 19.9175 191.554C18.7498 192.166 17.4558 192.498 16.1377 192.524C14.7478 192.728 13.3307 192.638 11.9778 192.26C10.6248 191.883 9.36611 191.225 8.28288 190.331C7.1776 189.285 6.30334 188.02 5.7163 186.616C5.12925 185.212 4.8424 183.701 4.87419 182.18V182.121Z" fill="white"/>
<path d="M78.7957 59.9693C78.7957 59.2579 78.2621 58.3687 77.9361 58.3687C77.61 58.3687 77.0765 59.2579 77.0765 59.9693C77.0416 60.1009 77.0375 60.2388 77.0643 60.3723C77.0912 60.5058 77.1484 60.6313 77.2314 60.7393C77.3145 60.8472 77.4212 60.9346 77.5434 60.9947C77.6656 61.0549 77.7999 61.0862 77.9361 61.0862C78.0723 61.0862 78.2066 61.0549 78.3288 60.9947C78.451 60.9346 78.5577 60.8472 78.6408 60.7393C78.7238 60.6313 78.781 60.5058 78.8079 60.3723C78.8347 60.2388 78.8305 60.1009 78.7957 59.9693Z" fill="white"/>
<path d="M81.2065 39.6084C80.727 39.6084 80.2671 39.7989 79.928 40.138C79.5889 40.4771 79.3984 40.9369 79.3984 41.4165C79.3984 41.896 79.5889 42.3559 79.928 42.695C80.2671 43.0341 80.727 43.2246 81.2065 43.2246C81.4686 43.1138 81.7014 42.9437 81.8866 42.7277C82.0718 42.5117 82.2042 42.2556 82.2736 41.9797C82.2736 40.8237 81.9179 39.6084 81.2065 39.6084Z" fill="white"/>
<path d="M81.2045 163.416C81.3823 163.416 81.8269 162.527 81.8269 161.579C81.8269 160.63 81.2638 159.978 80.9377 159.978C80.6117 159.978 80.0781 160.867 80.0781 161.579C80.0781 162.29 80.8784 163.416 81.2045 163.416Z" fill="white"/>
<path d="M175.847 148.687C176.11 148.569 176.343 148.393 176.528 148.173C176.713 147.952 176.845 147.692 176.914 147.412C176.914 146.256 176.529 145.041 175.847 145.041C175.396 145.072 174.976 145.278 174.676 145.617C174.376 145.955 174.222 146.398 174.247 146.849C174.23 147.075 174.259 147.302 174.331 147.517C174.403 147.731 174.516 147.93 174.665 148.101C174.814 148.271 174.995 148.411 175.198 148.512C175.4 148.612 175.621 148.672 175.847 148.687Z" fill="white"/>
<path fill-rule="evenodd" clip-rule="evenodd" d="M223.327 158.707C223.624 158.309 223.868 157.994 224.097 157.666C225.388 155.926 226.907 154.373 228.612 153.05C229.409 152.392 230.179 151.68 231.017 151.105C231.727 150.619 232.478 150.197 233.261 149.845C233.477 149.735 233.829 149.845 234.099 149.968C234.131 150.046 234.147 150.13 234.147 150.215C234.147 150.299 234.131 150.383 234.099 150.461C233.63 151.089 233.119 151.684 232.572 152.242C231.511 153.315 230.678 154.597 230.125 156.008C229.792 156.757 229.481 157.524 229.193 158.309C229.05 158.709 228.946 159.122 228.882 159.542C228.659 160.655 228.497 161.78 228.395 162.912C228.274 164.98 228.22 167.021 228.193 169.13C228.193 170.76 228.193 172.376 228.193 174.006C228.193 176.266 228.193 178.526 228.193 180.786C228.193 183.046 228.274 185.004 228.274 187.127C228.274 189.25 228.274 191.236 228.274 193.359C228.274 193.976 228.179 194.592 228.166 195.208C228.166 195.482 228.328 195.743 228.314 196.003C228.314 196.701 228.233 197.372 228.233 198.085C228.233 198.496 228.355 198.893 228.355 199.304C228.355 201.29 228.355 203.262 228.355 205.248C228.355 206.782 228.436 208.302 228.463 209.837C228.461 210.035 228.508 210.23 228.6 210.405C228.692 210.58 228.826 210.728 228.99 210.836L231.599 212.699C232.207 213.11 232.801 213.548 233.437 213.932C233.651 214.084 233.899 214.178 234.159 214.207C234.419 214.236 234.682 214.198 234.923 214.096C235.138 214.021 235.323 213.877 235.452 213.688C235.581 213.498 235.646 213.272 235.64 213.042C235.64 211.672 235.748 210.302 235.788 209.042C235.788 207.494 235.896 205.96 235.91 204.413C235.91 203.618 235.815 202.81 235.802 202.016C235.802 200.756 235.802 199.495 235.802 198.235C235.802 196.551 235.802 194.866 235.802 193.181C235.802 191.291 235.883 189.387 235.896 187.497C235.896 187.114 235.734 186.73 235.721 186.347C235.64 184.881 235.586 183.416 235.518 181.936C235.518 181.197 235.41 180.457 235.315 179.704C235.279 179.417 235.316 179.125 235.423 178.857C235.529 178.588 235.702 178.352 235.923 178.17C236.431 177.746 236.968 177.362 237.532 177.019C238.302 176.526 239.1 176.047 239.883 175.649C241.005 175.006 242.154 174.43 243.262 173.759C244.371 173.088 245.533 172.39 246.614 171.568C247.309 171.038 247.968 170.461 248.587 169.842C248.979 169.472 249.29 169.02 249.682 168.637C250.034 168.289 250.419 167.978 250.831 167.705C250.923 167.672 251.021 167.662 251.118 167.676C251.215 167.691 251.306 167.729 251.385 167.788C251.736 168.089 252.007 168.5 252.372 168.787C253.237 169.459 254.142 170.157 255.075 170.746C255.308 170.908 255.552 171.055 255.805 171.184C257.233 171.917 258.758 172.438 260.332 172.732C261.143 172.91 261.968 173.061 262.779 173.253C262.863 173.295 262.934 173.359 262.986 173.439C263.038 173.518 263.069 173.61 263.076 173.705C263.024 173.985 262.898 174.245 262.711 174.458C262.444 174.747 262.253 175.098 262.154 175.481C262.055 175.863 262.051 176.265 262.143 176.649C262.191 176.995 262.191 177.345 262.143 177.69C261.981 179.591 261.981 181.502 262.143 183.402C262.238 184.662 262.143 185.949 262.143 187.21C262.143 188.018 262.143 188.812 262.211 189.606C262.211 189.949 262.211 190.278 262.211 190.606C262.211 191.976 262.211 193.346 262.211 194.715C262.211 195.03 262.211 195.345 262.211 195.674C262.211 196.003 262.211 196.482 262.211 196.879C262.211 197.277 262.143 197.989 262.103 198.537C262.09 198.65 262.09 198.765 262.103 198.879C262.103 199.797 262.278 200.714 262.292 201.618C262.292 202.988 262.292 204.358 262.292 205.727C262.292 206.714 262.427 207.714 262.4 208.7C262.4 209.039 262.297 209.37 262.106 209.649C261.916 209.928 261.646 210.141 261.332 210.261C261.181 210.354 261.04 210.464 260.913 210.59C259.873 211.535 258.859 212.494 257.805 213.411C257.007 214.096 256.156 214.781 255.359 215.411C253.723 216.781 252.128 218.15 250.493 219.52C249.56 220.287 248.56 220.972 247.601 221.684C247.493 221.766 247.357 221.835 247.303 221.944C247.02 222.52 246.465 222.451 245.952 222.547C245.873 222.546 245.795 222.529 245.722 222.496C245.65 222.463 245.586 222.415 245.533 222.355C244.332 221.255 243.023 220.282 241.627 219.452C240.911 219 240.275 218.507 239.505 218.082C239.046 217.822 238.559 217.644 238.072 217.424C237.207 217.055 236.329 216.699 235.477 216.315C235.332 216.239 235.167 216.21 235.006 216.232C234.844 216.254 234.692 216.326 234.572 216.438C233.802 217.055 233.004 217.616 232.234 218.219C231.247 218.986 230.288 219.767 229.314 220.547C229.098 220.725 228.909 220.958 228.706 221.164C228.563 221.367 228.379 221.538 228.167 221.667C227.956 221.795 227.72 221.878 227.476 221.91C227.231 221.942 226.982 221.923 226.745 221.853C226.508 221.784 226.288 221.666 226.098 221.506C224.544 220.534 223.057 219.479 221.503 218.479C220.34 217.74 219.137 217.027 217.934 216.315C217.822 216.237 217.692 216.19 217.556 216.178C216.961 216.178 216.894 215.699 216.853 215.315C216.813 214.932 217.151 214.74 217.488 214.63C217.95 214.453 218.349 214.139 218.631 213.728C218.913 213.317 219.066 212.83 219.07 212.329C219.183 210.99 219.228 209.646 219.205 208.302C219.205 207.494 219.205 206.7 219.205 205.892C219.205 204.015 219.205 202.139 219.11 200.262C219.016 198.386 218.962 196.318 218.935 194.346C218.935 193.387 218.935 192.414 218.935 191.442C218.935 190.182 218.935 188.935 218.935 187.675C218.935 186.689 219.029 185.703 219.029 184.717C219.029 183.963 218.935 183.21 218.935 182.457C218.935 180.909 218.935 179.361 218.935 177.814C218.935 176.951 218.84 176.074 218.813 175.211C218.813 174.978 218.894 174.732 218.908 174.499C218.908 173.978 218.908 173.444 218.908 172.91C218.908 171.677 218.908 170.445 218.908 169.198C218.908 167.39 218.908 165.569 218.786 163.72C218.719 163.163 218.624 162.61 218.502 162.062C218.502 161.624 218.394 161.186 218.367 160.693C218.307 160.021 218.114 159.369 217.799 158.775C217.529 158.241 217.326 157.652 217.069 157.104C216.488 155.913 215.88 154.735 215.312 153.557C215.38 153.461 215.38 153.173 215.38 153.091C215.38 153.009 215.826 152.776 215.975 152.844C216.606 153.114 217.212 153.439 217.786 153.817C218.759 154.502 219.691 155.187 220.624 155.967C221.694 156.692 222.612 157.623 223.327 158.707ZM252.399 181.991H252.507C252.372 181.745 252.304 181.402 252.101 181.251C251.453 180.758 250.75 180.32 250.061 179.882C249.371 179.443 248.466 178.937 247.709 178.389C246.952 177.841 245.992 177.019 245.141 176.334C245.046 176.252 244.844 176.17 244.803 176.197C244.706 176.302 244.648 176.438 244.641 176.581C244.641 176.868 244.735 177.156 244.735 177.444C244.735 179.937 244.735 182.429 244.735 184.922C244.735 186.99 244.641 189.031 244.6 191.113C244.56 193.195 244.6 195.113 244.519 197.126C244.519 198.633 244.519 200.153 244.519 201.66C244.519 202.55 244.519 203.44 244.519 204.399C244.519 205.358 244.519 206.549 244.519 207.631C244.519 208.439 244.519 209.248 245.492 209.48C245.492 209.48 245.587 209.48 245.641 209.576L248.506 211.425C249.682 212.206 250.844 213 252.007 213.795C252.412 214.082 252.831 213.946 252.872 213.452C252.912 212.959 252.953 212.329 252.966 211.768C252.966 210.056 252.966 208.344 252.966 206.631C252.966 203.194 252.966 199.783 252.966 196.332C252.966 195.386 252.966 194.428 252.966 193.483C252.966 192.538 252.831 191.949 252.818 191.182C252.818 189.483 252.818 187.785 252.818 186.086C252.818 185.648 252.818 185.223 252.75 184.717L252.399 181.991Z" fill="white"/>
<path d="M341.264 365.089L349.667 363.009C366.775 358.711 384.458 354.249 393.984 355.344C395.955 339.249 408.738 321.621 423.055 303.007C427.243 294.111 430.746 285.707 433.648 277.851L431.951 277.358C431.817 277.321 431.691 277.257 431.582 277.17C431.473 277.083 431.383 276.975 431.317 276.852C431.25 276.73 431.209 276.595 431.196 276.456C431.183 276.317 431.197 276.177 431.239 276.044C431.282 275.902 431.353 275.77 431.45 275.657C431.546 275.544 431.665 275.452 431.799 275.388C431.934 275.323 432.079 275.287 432.228 275.283C432.377 275.278 432.525 275.304 432.662 275.36C433.319 275.579 433.867 275.716 434.469 275.88C435.537 272.896 436.549 269.94 437.453 267.121H436.987L435.4 266.601C435.128 266.524 434.897 266.343 434.759 266.096C434.62 265.85 434.585 265.559 434.661 265.287C434.764 265.046 434.952 264.852 435.189 264.741C435.427 264.63 435.696 264.61 435.947 264.685L437.425 265.095H437.973C438.849 262.166 439.643 259.319 440.327 256.582L438.821 256.171C438.687 256.134 438.562 256.07 438.453 255.983C438.344 255.896 438.254 255.788 438.187 255.665C438.121 255.543 438.08 255.408 438.067 255.269C438.053 255.131 438.068 254.991 438.11 254.858C438.15 254.722 438.217 254.596 438.307 254.487C438.397 254.378 438.507 254.288 438.632 254.222C438.757 254.155 438.893 254.115 439.034 254.102C439.174 254.089 439.316 254.104 439.451 254.146L440.82 254.529C441.367 252.093 441.832 249.739 442.216 247.494H441.312C441.175 247.474 441.043 247.427 440.924 247.355C440.805 247.284 440.702 247.189 440.621 247.077C440.539 246.964 440.481 246.837 440.449 246.702C440.417 246.567 440.413 246.427 440.436 246.29C440.449 246.148 440.491 246.011 440.56 245.887C440.63 245.763 440.724 245.655 440.838 245.57C440.951 245.485 441.081 245.424 441.22 245.393C441.358 245.361 441.502 245.359 441.641 245.386H442.544C442.9 242.896 443.119 240.541 443.229 238.269H440.874C440.722 238.294 440.566 238.285 440.417 238.244C440.268 238.202 440.13 238.129 440.012 238.028C439.894 237.928 439.8 237.804 439.735 237.663C439.67 237.523 439.636 237.37 439.636 237.216C439.636 237.061 439.67 236.908 439.735 236.768C439.8 236.628 439.894 236.503 440.012 236.403C440.13 236.302 440.268 236.229 440.417 236.187C440.566 236.146 440.722 236.137 440.874 236.162H443.365C443.432 233.709 443.294 231.255 442.955 228.826C442.955 228.306 442.736 227.813 442.626 227.32H441.942H440.436C440.186 227.28 439.958 227.151 439.794 226.958C439.63 226.765 439.539 226.52 439.539 226.266C439.539 226.013 439.63 225.767 439.794 225.574C439.958 225.381 440.186 225.253 440.436 225.212H442.188C441.728 223.034 441.134 220.885 440.409 218.78C439.807 218.971 439.287 219.218 438.602 219.382H438.356C438.121 219.375 437.895 219.295 437.708 219.152C437.522 219.01 437.385 218.813 437.316 218.588C437.279 218.453 437.27 218.312 437.289 218.174C437.308 218.035 437.354 217.902 437.426 217.782C437.497 217.662 437.592 217.558 437.705 217.475C437.818 217.392 437.946 217.333 438.082 217.302C438.712 217.11 439.177 216.918 439.725 216.727C438.699 214.113 437.463 211.586 436.029 209.172C435.208 209.61 434.442 209.993 433.84 210.267C433.696 210.304 433.545 210.304 433.402 210.267C433.2 210.273 433.001 210.219 432.831 210.112C432.66 210.005 432.525 209.849 432.443 209.665C432.379 209.539 432.34 209.402 432.33 209.262C432.32 209.121 432.339 208.98 432.385 208.847C432.431 208.714 432.504 208.592 432.598 208.488C432.693 208.383 432.808 208.3 432.936 208.241C433.511 207.995 434.223 207.612 435.017 207.201C433.275 204.493 431.306 201.938 429.131 199.564C428.502 199.92 427.872 200.303 427.215 200.741C427.041 200.845 426.843 200.902 426.64 200.905C426.406 200.919 426.173 200.853 425.981 200.718C425.788 200.583 425.647 200.387 425.581 200.162C425.514 199.936 425.526 199.695 425.614 199.477C425.702 199.259 425.861 199.077 426.066 198.962C426.613 198.606 427.133 198.277 427.681 197.976C424.332 194.528 420.666 191.403 416.731 188.642C405.289 188.04 394.34 187.383 385.964 186.781C379.257 186.315 373.974 185.932 371.566 185.85L367.843 185.686C352.733 185.111 333.38 184.372 316.737 186.589C319.639 194.034 322.622 201.863 325.579 209.801C327.168 209.409 328.79 209.162 330.424 209.062C330.703 209.061 330.973 209.164 331.181 209.351C331.389 209.539 331.519 209.797 331.546 210.075C331.553 210.215 331.533 210.356 331.486 210.488C331.439 210.62 331.367 210.742 331.273 210.846C331.178 210.951 331.065 211.035 330.938 211.096C330.811 211.156 330.674 211.19 330.533 211.197C329.112 211.28 327.701 211.491 326.318 211.827C327.248 214.373 328.124 216.891 329.055 219.437L330.917 218.807L332.641 218.232C332.772 218.185 332.911 218.165 333.05 218.172C333.189 218.18 333.326 218.216 333.451 218.277C333.576 218.338 333.687 218.424 333.779 218.529C333.87 218.634 333.939 218.757 333.982 218.889C334.029 219.022 334.048 219.163 334.039 219.303C334.029 219.444 333.991 219.581 333.927 219.706C333.863 219.832 333.775 219.943 333.666 220.033C333.558 220.123 333.433 220.19 333.298 220.231L331.628 220.805L329.739 221.435C330.506 223.57 331.272 225.705 331.984 227.868C332.805 227.731 333.654 227.567 334.721 227.32C334.996 227.268 335.28 227.321 335.518 227.468C335.756 227.615 335.931 227.845 336.008 228.114C336.04 228.251 336.046 228.392 336.023 228.531C336.001 228.67 335.952 228.802 335.878 228.922C335.804 229.042 335.708 229.145 335.594 229.227C335.48 229.31 335.351 229.368 335.214 229.401L332.477 229.921C333.38 232.658 334.174 235.395 334.995 238.133C335.696 237.923 336.382 237.667 337.048 237.366C337.177 237.307 337.317 237.275 337.459 237.27C337.601 237.266 337.742 237.29 337.875 237.341C338.007 237.392 338.128 237.469 338.231 237.567C338.333 237.665 338.415 237.783 338.471 237.914C338.582 238.172 338.587 238.463 338.484 238.724C338.382 238.985 338.18 239.196 337.924 239.31C337.18 239.65 336.411 239.934 335.625 240.158C335.871 241.034 336.2 241.91 336.446 242.896C336.829 244.182 337.294 245.879 337.815 247.768C339.136 247.379 340.493 247.122 341.866 247.001C342.142 247.001 342.409 247.105 342.612 247.293C342.815 247.481 342.94 247.738 342.961 248.014C342.972 248.153 342.955 248.293 342.911 248.425C342.867 248.557 342.797 248.679 342.705 248.784C342.614 248.889 342.502 248.974 342.376 249.034C342.251 249.095 342.114 249.13 341.975 249.137C340.758 249.232 339.556 249.461 338.389 249.821C339.074 252.285 339.868 255.296 340.716 258.361L343.453 257.54L344.658 257.184C344.795 257.138 344.941 257.119 345.085 257.131C345.23 257.142 345.371 257.183 345.499 257.251C345.627 257.318 345.741 257.412 345.832 257.524C345.923 257.637 345.99 257.768 346.029 257.907C346.068 258.047 346.079 258.193 346.059 258.337C346.04 258.481 345.992 258.619 345.917 258.744C345.842 258.868 345.743 258.976 345.626 259.061C345.508 259.146 345.374 259.206 345.233 259.237L344.028 259.593L341.291 260.414C341.948 262.878 342.632 265.533 343.344 268.325C344.473 268.088 345.588 267.787 346.683 267.422C346.952 267.345 347.24 267.376 347.486 267.51C347.731 267.643 347.915 267.867 347.997 268.134C348.04 268.268 348.055 268.41 348.042 268.551C348.029 268.691 347.988 268.828 347.922 268.953C347.855 269.078 347.765 269.188 347.656 269.278C347.547 269.367 347.421 269.434 347.286 269.475C346.197 269.772 345.091 270.001 343.973 270.159C344.685 272.896 345.397 275.88 346.136 278.891H346.683H347.121C347.601 278.751 348.1 278.687 348.6 278.7C348.885 278.721 349.151 278.853 349.341 279.068C349.53 279.283 349.627 279.563 349.612 279.849C349.592 280.118 349.47 280.369 349.272 280.552C349.074 280.734 348.814 280.836 348.545 280.835H348.408C348.135 280.799 347.859 280.799 347.587 280.835H347.039H346.629C347.121 282.888 347.641 284.995 348.134 287.158L350.488 286.72L351.994 286.446C352.133 286.419 352.276 286.42 352.414 286.45C352.552 286.479 352.683 286.537 352.798 286.619C352.914 286.701 353.011 286.806 353.084 286.926C353.158 287.047 353.206 287.182 353.226 287.322C353.267 287.597 353.202 287.877 353.044 288.106C352.887 288.334 352.648 288.495 352.377 288.554L350.844 288.8L348.6 289.211C349.092 291.264 349.558 293.344 350.023 295.425L350.789 295.288C351.611 295.288 352.432 294.987 353.226 294.795C353.493 294.741 353.772 294.786 354.008 294.922C354.245 295.058 354.424 295.275 354.512 295.534C354.58 295.81 354.537 296.101 354.394 296.346C354.251 296.591 354.019 296.771 353.746 296.848C352.897 297.067 352.021 297.231 351.008 297.368L350.543 297.532C351.063 299.914 351.583 302.323 352.103 304.786C353.066 304.618 353.992 304.285 354.841 303.801C354.955 303.724 355.084 303.671 355.219 303.645C355.355 303.619 355.494 303.62 355.629 303.648C355.764 303.676 355.892 303.73 356.006 303.808C356.12 303.886 356.217 303.986 356.291 304.102C356.398 304.221 356.476 304.363 356.521 304.516C356.565 304.67 356.575 304.831 356.548 304.989C356.522 305.146 356.461 305.296 356.369 305.427C356.277 305.558 356.157 305.666 356.018 305.744C354.932 306.37 353.747 306.806 352.514 307.031C352.952 309.193 353.417 311.356 353.855 313.546H354.019L355.196 313.217L355.689 313.053C356.173 312.804 356.706 312.663 357.249 312.642C357.533 312.642 357.804 312.755 358.004 312.955C358.205 313.155 358.317 313.427 358.317 313.71C358.317 313.993 358.205 314.265 358.004 314.465C357.804 314.665 357.533 314.777 357.249 314.777C356.994 314.815 356.745 314.889 356.51 314.996C356.274 315.111 356.026 315.203 355.771 315.27L354.485 315.599H354.266C354.841 318.528 355.388 321.456 355.908 324.413C356.845 324.348 357.768 324.146 358.646 323.811C358.773 323.752 358.91 323.72 359.05 323.716C359.19 323.712 359.33 323.736 359.46 323.787C359.59 323.838 359.709 323.915 359.809 324.013C359.909 324.111 359.988 324.229 360.042 324.358C360.154 324.613 360.162 324.901 360.065 325.162C359.968 325.423 359.773 325.635 359.521 325.754C358.516 326.134 357.468 326.392 356.401 326.52C356.866 329.258 357.332 331.831 357.77 334.486H357.989C358.928 334.385 359.849 334.154 360.726 333.802C360.984 333.691 361.275 333.687 361.536 333.789C361.797 333.892 362.008 334.093 362.122 334.349C362.181 334.475 362.215 334.611 362.221 334.75C362.227 334.888 362.205 335.027 362.156 335.157C362.108 335.287 362.034 335.406 361.939 335.507C361.843 335.608 361.729 335.689 361.602 335.745C360.503 336.174 359.353 336.46 358.18 336.594H357.989C358.536 340.125 359.083 343.629 359.576 347.132C364.959 345.602 370.449 344.477 376 343.766L383.61 342.944C383.893 342.927 384.174 343.015 384.396 343.192C384.618 343.369 384.767 343.622 384.814 343.902C384.833 344.038 384.825 344.175 384.789 344.307C384.754 344.439 384.692 344.563 384.608 344.67C384.523 344.777 384.418 344.867 384.298 344.932C384.179 344.998 384.047 345.039 383.911 345.052C381.174 345.326 378.792 345.572 376.274 345.873C367.94 346.996 359.741 348.958 351.802 351.731C351.694 351.758 351.582 351.758 351.474 351.731C351.253 351.729 351.038 351.659 350.857 351.532C350.676 351.405 350.538 351.226 350.461 351.019C350.414 350.887 350.395 350.746 350.405 350.605C350.414 350.465 350.452 350.328 350.516 350.202C350.58 350.077 350.669 349.966 350.777 349.876C350.885 349.786 351.01 349.718 351.145 349.678C353.39 348.912 355.58 348.227 357.687 347.598C357.195 344.121 356.675 340.618 356.1 337.114C355.163 337.381 354.248 337.719 353.362 338.127C353.21 338.167 353.05 338.167 352.897 338.127C352.666 338.115 352.445 338.028 352.267 337.879C352.089 337.731 351.965 337.528 351.912 337.303C351.86 337.077 351.882 336.841 351.976 336.629C352.07 336.417 352.23 336.241 352.432 336.128C353.533 335.594 354.69 335.181 355.881 334.897C355.443 332.159 354.978 329.586 354.512 326.931C353.36 327.21 352.234 327.585 351.145 328.053C350.993 328.093 350.833 328.093 350.68 328.053C350.483 328.054 350.29 327.998 350.125 327.891C349.96 327.784 349.829 327.631 349.749 327.451C349.625 327.2 349.603 326.91 349.69 326.644C349.778 326.378 349.966 326.157 350.215 326.028C351.37 325.537 352.571 325.161 353.8 324.905C353.28 322.004 352.733 319.13 352.158 316.256C351.458 316.483 350.731 316.611 349.996 316.639H349.612C349.36 316.582 349.137 316.435 348.985 316.225C348.833 316.016 348.762 315.759 348.785 315.501C348.809 315.243 348.925 315.003 349.112 314.825C349.3 314.646 349.545 314.542 349.804 314.531C350.477 314.535 351.145 314.414 351.775 314.175C351.31 311.985 350.872 309.796 350.434 307.606H350.16L348.928 307.962H348.682C348.444 307.968 348.21 307.893 348.021 307.749C347.832 307.604 347.698 307.399 347.641 307.168C347.609 307.031 347.604 306.889 347.626 306.751C347.648 306.612 347.698 306.479 347.771 306.36C347.845 306.24 347.942 306.136 348.056 306.054C348.17 305.972 348.299 305.913 348.435 305.881L349.503 305.58L349.996 305.416C349.475 302.952 348.928 300.543 348.435 298.162C348.033 298.257 347.639 298.385 347.258 298.545H346.82C346.616 298.549 346.415 298.491 346.244 298.379C346.073 298.267 345.94 298.105 345.862 297.916C345.804 297.788 345.771 297.651 345.767 297.511C345.763 297.371 345.788 297.231 345.839 297.101C345.89 296.971 345.967 296.852 346.065 296.752C346.163 296.652 346.28 296.573 346.41 296.52C346.907 296.314 347.419 296.15 347.943 296.027C347.477 293.946 347.012 291.893 346.574 289.868C346.218 289.868 345.89 290.032 345.506 290.169H345.151C344.91 290.152 344.683 290.054 344.505 289.891C344.327 289.729 344.21 289.511 344.172 289.273C344.134 289.035 344.177 288.791 344.295 288.581C344.414 288.371 344.599 288.207 344.822 288.116C345.234 287.972 345.655 287.854 346.081 287.76C345.589 285.625 345.068 283.517 344.576 281.464C344.057 281.692 343.5 281.822 342.933 281.848C342.664 281.848 342.404 281.747 342.206 281.564C342.008 281.382 341.886 281.131 341.866 280.862C341.857 280.578 341.957 280.301 342.145 280.088C342.333 279.874 342.595 279.74 342.879 279.712C343.191 279.723 343.501 279.657 343.782 279.521H344.138C343.399 276.455 342.66 273.471 341.948 270.679C341.428 270.679 340.88 270.871 340.305 271.035H340.004C339.742 271.054 339.482 270.974 339.277 270.809C339.072 270.645 338.937 270.409 338.899 270.149C338.861 269.889 338.922 269.624 339.072 269.407C339.221 269.191 339.447 269.039 339.703 268.982C340.269 268.818 340.845 268.69 341.428 268.599C340.716 265.862 340.059 263.124 339.402 260.77L337.897 261.181H337.623C337.358 261.19 337.098 261.1 336.896 260.928C336.693 260.756 336.562 260.515 336.528 260.251C336.494 259.988 336.559 259.721 336.711 259.503C336.863 259.286 337.09 259.132 337.349 259.073L338.855 258.662C338.006 255.46 337.212 252.586 336.528 250.095L335.597 250.314C335.416 250.342 335.231 250.342 335.05 250.314H334.639C334.384 250.293 334.145 250.181 333.965 249.998C333.786 249.815 333.678 249.574 333.661 249.319C333.645 249.063 333.72 248.81 333.875 248.606C334.029 248.402 334.252 248.26 334.502 248.206C334.992 248.125 335.477 248.016 335.953 247.877C335.433 246.043 334.968 244.374 334.585 243.087C334.338 242.239 334.037 241.335 333.763 240.35L332.285 240.815H331.957C331.714 240.803 331.483 240.709 331.301 240.549C331.12 240.388 330.998 240.17 330.957 239.931C330.915 239.692 330.956 239.446 331.073 239.234C331.191 239.021 331.377 238.855 331.601 238.762C332.176 238.543 332.696 238.406 333.134 238.269C332.313 235.532 331.491 232.795 330.588 230.058L329.055 230.413H328.645C328.406 230.42 328.173 230.345 327.984 230.2C327.795 230.056 327.661 229.851 327.604 229.62C327.538 229.347 327.581 229.06 327.724 228.819C327.868 228.579 328.1 228.404 328.371 228.333L329.767 228.005C329.055 225.924 328.289 223.816 327.577 221.709C327.056 221.863 326.526 221.982 325.989 222.065H325.907C325.658 222.068 325.415 221.981 325.224 221.82C325.033 221.659 324.906 221.435 324.867 221.189C324.844 221.05 324.848 220.909 324.879 220.772C324.91 220.635 324.968 220.505 325.049 220.391C325.131 220.277 325.234 220.179 325.353 220.105C325.472 220.03 325.605 219.98 325.743 219.957C326.126 219.957 326.537 219.765 326.947 219.683C326.044 217.137 325.168 214.619 324.21 212.128C323.334 212.374 322.486 212.621 321.664 212.922H321.309C321.153 212.946 320.995 212.937 320.844 212.894C320.693 212.852 320.552 212.777 320.433 212.676C320.385 212.544 320.365 212.405 320.373 212.266C320.38 212.127 320.416 211.991 320.477 211.866C320.538 211.741 320.624 211.629 320.729 211.538C320.835 211.447 320.957 211.377 321.09 211.334C321.883 211.033 322.759 210.814 323.608 210.54C320.624 202.493 317.586 194.555 314.657 187.054C310.471 187.66 306.335 188.575 302.284 189.792L299.547 190.668C339.046 257.184 344.877 308.618 341.264 365.089ZM333.818 195.649C333.767 195.778 333.681 195.89 333.57 195.972C333.459 196.055 333.326 196.104 333.188 196.115C333.021 196.137 332.851 196.121 332.692 196.067C332.532 196.013 332.387 195.923 332.268 195.804C332.148 195.685 332.058 195.54 332.004 195.38C331.95 195.22 331.934 195.05 331.957 194.883C331.957 194.39 331.957 193.35 332.969 193.35C333.982 193.35 333.928 194.336 333.928 194.993C333.936 195.217 333.898 195.44 333.818 195.649ZM339.594 210.623C339.533 210.794 339.423 210.943 339.276 211.05C339.13 211.158 338.954 211.219 338.773 211.225C338.555 211.262 338.331 211.247 338.12 211.181C337.909 211.115 337.717 210.999 337.559 210.844C337.401 210.689 337.282 210.499 337.213 210.289C337.143 210.079 337.124 209.856 337.158 209.637C337.158 208.98 337.158 207.639 338.471 207.639C339.785 207.639 339.731 208.898 339.731 209.774C339.735 210.063 339.688 210.35 339.594 210.623ZM344.822 228.716C343.906 228.544 343.079 228.058 342.483 227.341C341.888 226.623 341.562 225.72 341.562 224.788C341.562 223.856 341.888 222.953 342.483 222.236C343.079 221.519 343.906 221.032 344.822 220.86C346.82 220.86 347.559 223.351 347.559 225.486C347.395 226.827 345.972 228.716 344.685 228.716H344.822ZM351.419 252.23H351.118C348.381 252.23 347.997 248.835 347.888 247.22C347.544 245.637 347.818 243.982 348.654 242.594C349.139 242.055 349.819 241.73 350.543 241.691H350.872C351.966 241.691 354.54 242.156 354.923 246.7C354.977 249.219 353.691 252.038 351.282 252.23H351.419ZM357.304 276.729C354.321 276.729 353.965 272.678 353.773 270.241C353.602 269.463 353.587 268.658 353.728 267.874C353.868 267.089 354.163 266.34 354.594 265.67C354.889 265.343 355.247 265.079 355.647 264.896C356.047 264.712 356.481 264.612 356.921 264.602C357.472 264.527 358.032 264.584 358.556 264.77C359.08 264.956 359.552 265.264 359.932 265.67C360.461 266.39 360.838 267.211 361.04 268.081C361.243 268.952 361.266 269.854 361.109 270.734C360.808 274.539 359.631 276.537 357.551 276.729H357.304ZM361.164 297.012H360.945C360.522 297.024 360.102 296.947 359.711 296.787C359.319 296.626 358.966 296.386 358.673 296.082C358.277 295.591 357.985 295.025 357.815 294.418C357.646 293.811 357.602 293.175 357.687 292.55C357.674 291.562 358.027 290.603 358.68 289.86C359.332 289.117 360.236 288.642 361.219 288.527C362.998 288.527 363.956 290.771 363.956 292.934C363.956 295.096 362.888 296.903 361.027 297.012H361.164ZM364.722 315.982C363.806 315.81 362.979 315.323 362.383 314.606C361.788 313.889 361.462 312.986 361.462 312.054C361.462 311.122 361.788 310.219 362.383 309.501C362.979 308.784 363.806 308.298 364.722 308.126C366.748 308.126 367.46 310.617 367.46 312.779C367.323 314.093 365.899 315.982 364.585 315.982H364.722ZM368.774 327.095C368.709 327.262 368.596 327.405 368.45 327.507C368.304 327.609 368.131 327.666 367.952 327.67C366.857 327.67 366.365 327.177 366.365 326.11C366.365 325.453 366.365 324.084 367.651 324.084C368.938 324.084 368.91 325.371 368.91 326.247C368.866 326.543 368.774 326.829 368.637 327.095H368.774ZM367.898 268.708C356.62 214.729 349.065 197.1 347.806 190.558C365.79 190.558 379.175 190.887 389.878 191.352C409.724 195.513 426.695 216.864 426.695 239.145C426.695 289.019 400.006 324.358 390.426 338.729C383.692 325.289 375.179 304.923 367.761 268.708H367.898Z" fill="white"/>
<path d="M431.864 195.95C432.129 195.85 432.423 195.857 432.683 195.969C432.944 196.082 433.151 196.291 433.26 196.552C433.313 196.682 433.339 196.82 433.337 196.959C433.335 197.099 433.305 197.237 433.249 197.364C433.193 197.492 433.111 197.607 433.01 197.703C432.908 197.798 432.789 197.873 432.658 197.921C432.302 198.085 431.672 198.359 430.961 198.742C433.136 201.145 435.105 203.727 436.846 206.461C438.129 205.774 439.477 205.215 440.87 204.792C441.005 204.755 441.145 204.746 441.284 204.765C441.422 204.783 441.556 204.83 441.676 204.902C441.796 204.973 441.9 205.068 441.983 205.181C442.065 205.294 442.124 205.422 442.156 205.558C442.193 205.693 442.202 205.834 442.183 205.972C442.164 206.111 442.118 206.244 442.046 206.364C441.975 206.484 441.88 206.589 441.767 206.671C441.654 206.754 441.526 206.813 441.39 206.845C440.214 207.218 439.078 207.704 437.995 208.295C439.451 210.787 440.714 213.386 441.773 216.069L442.129 215.878L443.935 215.084C444.065 215.03 444.204 215.002 444.344 215.002C444.484 215.002 444.623 215.029 444.753 215.082C444.882 215.136 445 215.214 445.099 215.313C445.199 215.412 445.278 215.529 445.331 215.659C445.432 215.917 445.428 216.204 445.321 216.459C445.214 216.715 445.011 216.918 444.757 217.027L443.032 217.794L442.457 218.068C443.231 220.337 443.871 222.649 444.373 224.993C445.003 224.993 445.687 224.993 446.317 224.993H447.686C447.962 225 448.226 225.111 448.424 225.303C448.622 225.496 448.739 225.757 448.753 226.033C448.743 226.187 448.702 226.337 448.633 226.474C448.563 226.612 448.467 226.734 448.35 226.834C448.232 226.933 448.096 227.008 447.949 227.054C447.802 227.1 447.647 227.116 447.494 227.101H444.757C444.757 227.566 444.976 228.031 445.03 228.497C445.409 231.042 445.555 233.617 445.468 236.189C446.747 236.209 448.02 236.347 449.273 236.599C449.549 236.658 449.789 236.824 449.943 237.06C450.097 237.296 450.151 237.583 450.094 237.858C450.044 238.098 449.914 238.312 449.724 238.467C449.535 238.621 449.299 238.706 449.054 238.707H448.808C447.663 238.474 446.5 238.345 445.331 238.324C445.331 240.623 444.976 243.059 444.62 245.632C445.934 245.632 447.357 245.824 448.562 245.824C448.845 245.824 449.116 245.936 449.316 246.137C449.517 246.337 449.629 246.608 449.629 246.892C449.629 247.494 449.218 247.877 448.479 247.959C447.166 247.959 445.742 247.959 444.209 247.74C443.826 250.067 443.361 252.476 442.758 254.994C443.751 255.235 444.756 255.417 445.769 255.541C446.046 255.541 446.313 255.645 446.516 255.833C446.719 256.021 446.844 256.278 446.864 256.554C446.872 256.833 446.77 257.103 446.581 257.308C446.392 257.513 446.13 257.635 445.852 257.649C444.67 257.549 443.499 257.357 442.348 257.074C441.664 259.812 440.87 262.549 439.966 265.67C440.9 265.924 441.815 266.244 442.704 266.628C442.955 266.747 443.15 266.959 443.247 267.22C443.345 267.481 443.336 267.769 443.224 268.024C443.138 268.207 443.003 268.363 442.834 268.474C442.665 268.585 442.468 268.647 442.266 268.653C442.121 268.682 441.972 268.682 441.828 268.653C441.01 268.302 440.168 268.01 439.309 267.777C438.433 270.515 437.421 273.498 436.353 276.482C437.037 276.646 437.694 276.783 438.461 276.893C438.6 276.906 438.736 276.948 438.859 277.015C438.982 277.082 439.09 277.173 439.177 277.283C439.264 277.393 439.328 277.519 439.365 277.654C439.401 277.789 439.411 277.931 439.392 278.07C439.353 278.326 439.224 278.56 439.029 278.731C438.833 278.901 438.583 278.997 438.324 279C437.467 278.895 436.617 278.739 435.778 278.535C433.725 284.01 431.344 289.895 428.689 295.944C445.66 274.046 462.631 251.381 462.631 230.906C462.631 211.306 442.266 190.667 421.572 189.189H420.367C423.678 191.66 426.773 194.407 429.619 197.401C430.523 196.58 431.371 196.251 431.864 195.95Z" fill="white"/>
<path d="M364.603 309.906C363.782 309.906 363.07 310.891 363.07 312.068C363.07 313.245 363.755 314.203 364.576 314.231C365.081 313.894 365.435 313.374 365.561 312.78C365.561 311.22 365.069 309.906 364.603 309.906Z" fill="white"/>
<path d="M361.194 290.307C359.579 290.307 359.333 292.113 359.305 292.661C359.228 293.04 359.232 293.431 359.317 293.808C359.402 294.186 359.566 294.541 359.798 294.851C360.14 295.059 360.523 295.19 360.92 295.234C361.824 295.234 362.07 294.248 362.152 293.482C362.234 292.915 362.191 292.336 362.026 291.788C361.86 291.239 361.576 290.734 361.194 290.307Z" fill="white"/>
<path d="M350.722 243.388C350.381 243.372 350.047 243.49 349.791 243.716C349.349 244.79 349.226 245.968 349.435 247.11C349.682 249.848 350.202 250.532 350.968 250.532H351.105C352.282 250.532 353.213 248.671 353.076 246.837C352.939 245.003 352.419 243.388 350.722 243.388Z" fill="white"/>
<path d="M344.677 222.613C343.829 222.613 343.117 223.599 343.117 224.776C343.117 225.953 343.802 226.911 344.623 226.938C345.136 226.605 345.499 226.084 345.636 225.487C345.636 223.845 345.061 222.613 344.677 222.613Z" fill="white"/>
<path d="M266.418 220.204C266.743 223.69 268.298 226.947 270.807 229.39C273.315 231.833 276.611 233.302 280.105 233.535C283.602 233.427 286.916 231.943 289.325 229.406C291.734 226.869 293.044 223.483 292.97 219.985C293.04 218.441 292.782 216.901 292.214 215.464C291.646 214.028 290.78 212.728 289.673 211.649C288.567 210.571 287.244 209.74 285.793 209.209C284.343 208.678 282.796 208.461 281.255 208.57C281.008 207.886 283.527 202.493 295.133 197.813C310.27 226.965 341.038 286.337 333.455 361.367C333.455 361.504 320.125 365.528 317.798 364.57C319.44 361.34 317.798 347.297 304.905 347.297C301.459 347.44 298.194 348.878 295.763 351.325C293.332 353.771 291.915 357.045 291.793 360.491C291.793 369.552 297.87 377.353 314.321 377.353C331.676 377.353 358.748 362.489 400.93 362.489C400.93 362.106 400.738 361.723 400.684 361.367C401.012 319.787 470.047 276.921 470.047 231.837C469.904 224.947 468.223 218.175 465.125 212.018C462.028 205.861 457.593 200.474 452.145 196.252L459.29 196.608C474.482 197.265 477.986 181.526 475.412 180.567C474.29 180.157 474.016 182.429 457.812 182.429C442.264 182.429 426.004 181.142 408.129 180.622C360.692 179.144 262.942 167.456 266.418 220.204ZM301.593 187.575C305.967 186.296 310.433 185.353 314.951 184.756H315.17C332.306 182.292 352.37 183.031 368 183.633L371.723 183.798C374.159 183.798 379.47 184.235 386.176 184.728C403.421 185.878 432.218 188.04 451.297 188.04H451.954C460.357 188.04 466.544 187.876 469.774 186.371C470.028 186.258 470.317 186.25 470.577 186.347C470.838 186.444 471.051 186.639 471.17 186.891C471.23 187.015 471.265 187.149 471.273 187.287C471.28 187.424 471.261 187.562 471.215 187.692C471.169 187.822 471.098 187.941 471.006 188.043C470.913 188.145 470.801 188.228 470.677 188.287C467.064 189.984 460.631 190.121 451.954 190.148H451.297C445.822 190.148 439.608 189.984 433.121 189.71C450.311 196.334 464.71 213.963 464.71 230.77C464.71 252.668 446.397 276.319 428.659 299.203C412.673 319.897 397.563 339.414 395.976 356.659V357.809L394.853 357.59C386.039 356.084 367.863 360.628 350.29 365.063C339.468 367.997 328.505 370.381 317.442 372.207C315.755 372.442 314.054 372.561 312.351 372.563C307.774 372.844 303.248 371.475 299.595 368.703C298.36 367.609 297.379 366.258 296.722 364.745C296.065 363.232 295.746 361.593 295.79 359.944C295.811 357.439 296.822 355.044 298.601 353.28C300.38 351.517 302.783 350.527 305.288 350.527C306.461 350.392 307.649 350.523 308.763 350.911C309.878 351.299 310.89 351.934 311.725 352.768C312.559 353.603 313.194 354.615 313.582 355.73C313.97 356.844 314.101 358.032 313.966 359.205C314.009 360.45 313.67 361.679 312.995 362.726C312.32 363.773 311.34 364.588 310.188 365.063C309.256 365.499 308.219 365.664 307.198 365.538C306.176 365.412 305.211 365 304.412 364.351C303.659 363.515 303.181 362.468 303.044 361.351C302.907 360.235 303.117 359.103 303.646 358.11C303.756 357.862 303.957 357.666 304.207 357.561C304.456 357.456 304.737 357.449 304.991 357.543C305.245 357.637 305.454 357.825 305.576 358.067C305.697 358.31 305.721 358.589 305.644 358.849C304.987 360.628 305.069 362.024 305.891 362.818C306.383 363.229 306.985 363.487 307.622 363.56C308.259 363.633 308.904 363.518 309.476 363.229C310.242 362.912 310.891 362.365 311.332 361.664C311.773 360.963 311.986 360.142 311.94 359.314C312.087 358.422 312.019 357.508 311.742 356.647C311.465 355.786 310.987 355.004 310.348 354.364C309.708 353.725 308.926 353.247 308.065 352.97C307.204 352.693 306.29 352.625 305.398 352.772C303.454 352.765 301.587 353.526 300.202 354.89C298.818 356.254 298.029 358.11 298.007 360.053C297.958 361.401 298.207 362.743 298.737 363.982C299.267 365.222 300.065 366.33 301.073 367.225C304.385 369.962 310.133 371.194 317.25 370.209C323.546 369.36 331.238 367.663 339.149 365.719C342.817 309.276 337.123 258.034 297.542 191.38C285.415 195.869 272.906 203.725 272.906 217.165C272.933 223.625 276.629 226.91 280.187 226.91C281.057 226.973 281.93 226.851 282.749 226.552C283.568 226.254 284.315 225.785 284.94 225.178C285.566 224.571 286.056 223.838 286.378 223.028C286.701 222.218 286.848 221.349 286.811 220.478C286.811 216.618 285.032 214.401 281.939 214.401C281.048 214.475 280.216 214.877 279.604 215.53C278.992 216.182 278.644 217.038 278.627 217.932C278.587 218.359 278.647 218.79 278.804 219.189C278.961 219.589 279.21 219.946 279.53 220.231C279.745 220.386 279.996 220.485 280.259 220.519C280.522 220.552 280.789 220.519 281.036 220.423C281.169 220.381 281.309 220.366 281.447 220.38C281.586 220.393 281.721 220.434 281.843 220.5C281.966 220.567 282.074 220.657 282.161 220.766C282.248 220.875 282.312 221 282.35 221.134C282.392 221.266 282.408 221.404 282.396 221.541C282.385 221.679 282.346 221.812 282.282 221.935C282.219 222.057 282.131 222.165 282.025 222.253C281.919 222.342 281.797 222.408 281.665 222.448C281.099 222.641 280.495 222.694 279.905 222.603C279.314 222.513 278.753 222.281 278.271 221.928C277.702 221.439 277.256 220.822 276.971 220.127C276.685 219.432 276.568 218.68 276.629 217.932C276.635 216.466 277.209 215.06 278.229 214.009C279.25 212.958 280.639 212.343 282.103 212.293C286.401 212.293 289.083 215.414 289.083 220.505C289.142 221.675 288.95 222.845 288.52 223.934C288.089 225.024 287.43 226.009 286.588 226.823C285.745 227.638 284.738 228.262 283.634 228.655C282.53 229.047 281.355 229.199 280.187 229.1C275.534 229.1 270.826 224.939 270.826 217.029C270.826 200.468 287.578 191.873 301.593 187.575Z" fill="white"/>
<path d="M357.127 266.546C356.278 266.546 356.059 266.792 355.95 266.957C355.84 267.121 355.457 268.407 355.566 270.077C355.758 272.267 356.114 274.758 357.154 274.758C358.468 274.758 358.824 271.802 358.906 270.57C359.156 269.34 358.91 268.061 358.222 267.011C358.08 266.863 357.91 266.746 357.722 266.666C357.534 266.586 357.331 266.545 357.127 266.546Z" fill="white"/>
</svg>
