<svg width="664" height="346" viewBox="0 0 664 346" fill="none" xmlns="http://www.w3.org/2000/svg">
<path d="M208.838 73.9775C208.268 73.9775 207.721 74.2041 207.317 74.6075C206.914 75.0108 206.687 75.5578 206.688 76.1282C206.687 76.6986 206.914 77.2456 207.317 77.649C207.721 78.0523 208.268 78.2789 208.838 78.2789C209.15 78.1472 209.427 77.9449 209.647 77.6879C209.867 77.4309 210.025 77.1263 210.107 76.7981C210.107 75.4231 209.649 73.9775 208.838 73.9775Z" fill="white"/>
<path d="M214.554 92.7704C214.417 92.7502 214.277 92.7655 214.147 92.8148C214.017 92.8642 213.903 92.946 213.814 93.0525C212.862 94.1454 213.179 97.9179 213.285 99.1872C213.496 101.761 213.955 105.216 215.294 105.216V106.485V105.216C216.528 105.216 217.798 102.255 217.516 98.8699C217.234 95.4852 216.176 92.7704 214.554 92.7704Z" fill="white"/>
<path d="M216.768 116.498C215.71 116.498 214.547 119.495 214.547 124.008C214.547 125.418 214.547 130.037 216.768 130.037C218.002 130.037 219.518 127.181 219.518 123.867C219.518 119.671 218.319 116.498 216.768 116.498Z" fill="white"/>
<path d="M216.618 145.621C215.318 147.73 214.737 150.204 214.961 152.672C214.961 156.868 216.125 158.313 216.372 158.313C217.888 158.313 219.086 155.916 219.086 152.954C219.086 148.653 218.064 145.621 216.618 145.621Z" fill="white"/>
<path d="M142.561 232.775C153.251 233.614 164.005 232.937 174.504 230.765C196.684 226.615 216.513 214.331 230.104 196.319C243.89 177.985 250.236 154.575 251.646 131.411C253.057 108.247 249.813 84.3077 238.919 64.176C228.325 44.3036 210.909 28.9278 189.876 20.8804C179.825 17.0807 169.233 14.9028 158.498 14.4284C148.228 14.1055 137.956 14.993 127.895 17.0727C108.151 20.8099 89.8523 26.5568 72.3296 29.5184C66.7257 30.4207 61.0758 31.0092 55.4062 31.2812C67.8872 62.4484 69.509 93.686 69.509 117.555V124.254C69.509 153.799 69.509 179.325 61.9993 210.528C77.7944 215.569 94.4004 221.739 112.346 226.781C122.215 229.691 132.329 231.697 142.561 232.775ZM174.504 20.8804C175.28 20.8804 175.174 20.8804 175.245 21.6914C175.809 26.5568 178.523 27.3325 183.777 27.1209C187.02 27.1209 191.075 26.2395 193.543 28.1081C193.903 28.3746 194.198 28.7192 194.406 29.1162C194.613 29.5132 194.728 29.952 194.742 30.3998C194.769 30.9745 194.685 31.5491 194.495 32.0921C195.345 32.1526 196.162 32.4453 196.857 32.9383C197.592 33.5649 198.19 34.3358 198.614 35.203C199.039 36.0703 199.281 37.0155 199.325 37.9801C200.528 37.4633 201.852 37.2918 203.147 37.4849C204.442 37.6779 205.658 38.2278 206.659 39.073C207.369 39.8505 207.873 40.7934 208.125 41.8156C208.378 42.8378 208.37 43.907 208.104 44.9257C209.503 44.3768 211.041 44.2895 212.494 44.6764C213.946 45.0633 215.237 45.9042 216.178 47.0764C216.959 48.2583 217.375 49.6437 217.375 51.0604C217.375 52.477 216.959 53.8624 216.178 55.0444C217.074 54.7857 218.026 54.802 218.913 55.0911C219.799 55.3803 220.578 55.929 221.149 56.6662C221.555 57.5131 221.739 58.4493 221.684 59.3868C221.628 60.3243 221.335 61.2323 220.832 62.0253C221.983 61.8249 223.167 61.9497 224.251 62.3858C225.334 62.8218 226.275 63.5517 226.967 64.4933C227.756 65.7221 228.124 67.174 228.016 68.6303C227.908 70.0866 227.329 71.4683 226.367 72.5671C228.447 73.3075 231.303 74.612 232.044 76.5512C232.549 77.5829 232.752 78.7372 232.627 79.8794C232.502 81.0217 232.055 82.105 231.338 83.0032C232.978 82.9411 234.606 83.3055 236.063 84.0609C236.7 84.4153 237.26 84.8945 237.708 85.47C238.157 86.0455 238.484 86.7054 238.672 87.4103C239.136 88.8872 239.16 90.4674 238.74 91.9576C238.32 93.4477 237.476 94.7835 236.31 95.8014C237.552 96.0814 238.657 96.7892 239.43 97.801C240.203 98.8129 240.596 100.064 240.54 101.337C240.54 103.382 238.707 105.92 237.015 107.754C238.362 108.066 239.629 108.657 240.735 109.489C241.84 110.321 242.758 111.375 243.432 112.584C244.007 113.886 244.213 115.322 244.026 116.734C243.839 118.146 243.268 119.479 242.374 120.587C241.422 121.733 240.398 122.817 239.306 123.831C240.576 124.501 243.255 126.404 243.573 128.449C244.033 129.811 244.052 131.283 243.628 132.657C243.204 134.03 242.358 135.235 241.21 136.1C240.898 136.419 240.542 136.692 240.153 136.911C240.891 137.911 241.373 139.076 241.558 140.305C241.742 141.534 241.623 142.79 241.21 143.962C240.91 144.769 240.44 145.501 239.832 146.109C239.223 146.718 238.491 147.188 237.685 147.488C238.856 148.669 239.69 150.142 240.099 151.754C240.508 153.366 240.478 155.058 240.012 156.655C239.656 157.627 239.028 158.477 238.203 159.102C237.378 159.727 236.39 160.102 235.358 160.181C235.67 161.744 235.649 163.356 235.297 164.911C234.944 166.466 234.268 167.93 233.313 169.206C232.767 169.95 232.07 170.569 231.268 171.025C230.466 171.481 229.577 171.762 228.659 171.851C229.229 173.074 229.5 174.415 229.451 175.763C229.402 177.111 229.034 178.429 228.377 179.607C228.016 180.134 227.546 180.577 226.998 180.905C226.45 181.234 225.838 181.44 225.204 181.511C225.995 182.612 226.461 183.913 226.548 185.266C226.636 186.618 226.341 187.969 225.697 189.162C225.059 190.08 224.194 190.818 223.188 191.306C222.182 191.794 221.067 192.014 219.95 191.947C220.592 193.246 220.818 194.712 220.597 196.144C220.376 197.576 219.719 198.905 218.716 199.95C217.998 200.652 217.114 201.162 216.147 201.433C215.18 201.704 214.16 201.728 213.181 201.502C213.347 202.627 213.238 203.776 212.864 204.851C212.489 205.925 211.86 206.893 211.03 207.672C210.03 208.601 208.805 209.253 207.475 209.562C206.145 209.871 204.758 209.827 203.45 209.435C203.695 210.639 203.495 211.892 202.886 212.96C201.617 215.146 198.867 215.675 195.658 216.239C192.48 216.478 189.367 217.266 186.456 218.566C184.923 219.81 183.835 221.517 183.354 223.432C183.354 224.63 182.754 225.053 182.578 225.018C182.402 224.983 182.014 223.678 182.296 222.973C182.843 220.353 184.275 218 186.351 216.31C189.132 214.737 192.202 213.742 195.376 213.383C197.88 212.96 200.065 212.572 200.7 211.444C200.901 210.807 200.974 210.135 200.913 209.47C200.853 208.804 200.661 208.157 200.348 207.566C200.246 207.296 200.233 207 200.309 206.722C200.385 206.444 200.546 206.196 200.771 206.015C201.006 205.86 201.282 205.778 201.564 205.778C201.846 205.778 202.122 205.86 202.357 206.015C203.376 206.799 204.635 207.206 205.921 207.167C207.206 207.129 208.438 206.647 209.409 205.803C210.188 204.945 210.645 203.844 210.703 202.687C210.761 201.529 210.416 200.388 209.726 199.457C209.576 199.175 209.525 198.851 209.583 198.538C209.64 198.224 209.803 197.939 210.043 197.729C210.287 197.516 210.6 197.398 210.925 197.398C211.249 197.398 211.562 197.516 211.806 197.729C212.111 198.111 212.492 198.424 212.925 198.651C213.358 198.877 213.833 199.011 214.32 199.044C214.807 199.078 215.296 199.009 215.755 198.843C216.215 198.678 216.635 198.418 216.989 198.082C217.805 197.043 218.188 195.729 218.056 194.414C217.925 193.1 217.29 191.887 216.284 191.03C216.104 190.792 216.006 190.501 216.006 190.202C216.006 189.903 216.104 189.612 216.284 189.373C216.455 189.135 216.697 188.955 216.975 188.86C217.253 188.766 217.554 188.76 217.835 188.845C218.817 189.323 219.928 189.471 221.001 189.268C222.075 189.065 223.054 188.52 223.793 187.716C224.886 185.989 223.793 183.203 221.396 180.453C221.192 180.212 221.08 179.906 221.08 179.59C221.08 179.273 221.192 178.967 221.396 178.726C221.576 178.459 221.849 178.268 222.161 178.19C222.473 178.112 222.804 178.152 223.088 178.303C224.816 179.114 226.015 179.043 226.614 178.091C227.146 176.932 227.316 175.638 227.103 174.38C226.889 173.123 226.301 171.958 225.415 171.04C225.18 170.824 225.029 170.532 224.991 170.215C224.952 169.898 225.027 169.578 225.204 169.312C225.378 169.039 225.644 168.835 225.953 168.739C226.263 168.642 226.597 168.658 226.896 168.783C227.677 169.158 228.569 169.233 229.401 168.992C230.234 168.752 230.948 168.213 231.409 167.479C232.298 166.358 232.855 165.011 233.017 163.591C233.179 162.17 232.939 160.732 232.326 159.44C232.161 159.214 232.07 158.944 232.063 158.665C232.057 158.386 232.135 158.111 232.288 157.878C232.441 157.644 232.662 157.463 232.92 157.358C233.179 157.253 233.463 157.229 233.736 157.29C234.475 157.594 235.304 157.595 236.044 157.291C236.784 156.988 237.373 156.404 237.685 155.668C238.05 154.083 237.857 152.42 237.137 150.962C236.418 149.503 235.216 148.338 233.736 147.664C233.459 147.509 233.245 147.262 233.129 146.967C233.013 146.671 233.004 146.345 233.101 146.043C233.184 145.735 233.377 145.468 233.643 145.292C233.91 145.117 234.231 145.045 234.547 145.091C235.426 145.331 236.364 145.241 237.182 144.839C238 144.436 238.643 143.748 238.989 142.905C239.259 141.751 239.139 140.541 238.648 139.463C238.156 138.385 237.322 137.5 236.274 136.946C236.023 136.794 235.831 136.561 235.729 136.286C235.627 136.011 235.62 135.71 235.71 135.43C235.867 135.069 236.152 134.779 236.51 134.616C236.868 134.453 237.274 134.429 237.649 134.549C237.92 134.685 238.231 134.717 238.523 134.639C238.816 134.561 239.069 134.379 239.236 134.126C239.984 133.488 240.543 132.659 240.853 131.727C241.164 130.795 241.214 129.796 240.999 128.837C240.589 127.99 239.963 127.266 239.182 126.739C238.402 126.213 237.496 125.903 236.556 125.84C236.283 125.85 236.013 125.774 235.785 125.622C235.557 125.47 235.383 125.251 235.287 124.994C235.186 124.735 235.165 124.452 235.228 124.181C235.291 123.911 235.435 123.666 235.64 123.478C237.231 122.051 238.738 120.533 240.153 118.93C240.757 118.22 241.153 117.357 241.296 116.436C241.439 115.514 241.324 114.572 240.964 113.712C240.222 112.52 239.18 111.544 237.943 110.882C236.705 110.22 235.315 109.895 233.912 109.939C233.636 109.92 233.371 109.819 233.152 109.649C232.932 109.48 232.768 109.25 232.678 108.988C232.596 108.732 232.592 108.457 232.667 108.2C232.743 107.942 232.894 107.713 233.101 107.542C235.393 105.532 237.861 102.571 237.755 101.513C237.755 99.6445 237.473 97.9874 232.643 97.9874C232.338 98.0118 232.035 97.9254 231.789 97.744C231.543 97.5626 231.37 97.2985 231.303 97.0002C231.214 96.7119 231.224 96.4018 231.333 96.1203C231.442 95.8387 231.642 95.6021 231.902 95.4489C236.592 92.6988 236.592 90.0898 235.992 87.9391C235.907 87.581 235.746 87.245 235.521 86.9533C235.296 86.6616 235.012 86.4209 234.688 86.2468C232.352 85.3413 229.761 85.3413 227.425 86.2468C227.114 86.3595 226.771 86.3529 226.465 86.2282C226.158 86.1036 225.908 85.8698 225.764 85.5719C225.619 85.2741 225.59 84.9332 225.682 84.6151C225.774 84.297 225.98 84.0242 226.261 83.8493C230.633 80.6057 229.999 78.9839 229.399 77.3973C229.011 76.4101 226.085 75.1056 223.547 74.4357C223.312 74.3807 223.096 74.2632 222.922 74.0957C222.748 73.9281 222.623 73.7167 222.559 73.4838C222.501 73.2544 222.503 73.0138 222.564 72.7853C222.626 72.5567 222.746 72.348 222.912 72.1793C226.12 68.9004 225.168 66.7145 224.604 65.9388C224.04 65.1632 223.124 63.7881 218.047 65.1279C217.759 65.2055 217.454 65.1853 217.18 65.0704C216.905 64.9555 216.677 64.7524 216.53 64.4933C216.374 64.2359 216.307 63.9343 216.339 63.635C216.371 63.3357 216.5 63.055 216.707 62.8362C218.434 61.1086 219.21 58.7464 218.752 58.006C218.293 57.2656 216.954 57.1246 213.181 58.4643C212.886 58.5619 212.568 58.5596 212.274 58.4576C211.981 58.3556 211.73 58.1597 211.559 57.9002C211.365 57.6612 211.258 57.3624 211.258 57.0541C211.258 56.7458 211.365 56.4469 211.559 56.2079C211.559 56.2079 216.037 51.695 213.745 48.5219C211.453 45.3488 206.376 48.5219 206.341 48.5219C206.084 48.6649 205.787 48.7215 205.495 48.6835C205.203 48.6454 204.931 48.5146 204.719 48.3103C204.501 48.1166 204.351 47.8568 204.294 47.5704C204.237 47.284 204.275 46.9867 204.402 46.7238C205.601 44.3263 205.636 42.1404 204.402 40.9769C203.168 39.8134 200.876 39.8839 198.338 41.1884C198.135 41.3096 197.904 41.3736 197.668 41.3736C197.432 41.3736 197.201 41.3096 196.998 41.1884C196.795 41.0632 196.629 40.886 196.518 40.6753C196.406 40.4646 196.353 40.2279 196.364 39.9897C196.364 39.0378 196.364 36.182 194.953 35.23C194.483 34.9739 193.955 34.8397 193.42 34.8397C192.884 34.8397 192.356 34.9739 191.886 35.23C191.597 35.334 191.281 35.3383 190.989 35.242C190.698 35.1458 190.447 34.9546 190.276 34.6989C190.106 34.4433 190.026 34.138 190.049 33.8317C190.073 33.5253 190.198 33.2357 190.405 33.0088C191.098 32.3649 191.556 31.5092 191.71 30.5761C189.481 29.2585 186.854 28.7831 184.306 29.2363C179.511 29.4479 174.68 28.8485 173.729 22.1849C173.94 21.4798 173.94 20.8452 174.504 20.8804ZM192.697 203.723C192.697 203.053 192.697 201.678 194.037 201.678C195.376 201.678 195.341 202.983 195.341 203.829C195.383 204.121 195.383 204.418 195.341 204.71C195.272 204.891 195.152 205.047 194.995 205.16C194.839 205.272 194.653 205.337 194.46 205.345C194.23 205.399 193.99 205.397 193.761 205.337C193.532 205.277 193.321 205.162 193.147 205.002C192.973 204.842 192.841 204.642 192.763 204.419C192.684 204.196 192.662 203.957 192.697 203.723ZM202.463 61.849C202.381 62.0671 202.237 62.2566 202.05 62.3943C201.862 62.5321 201.638 62.6121 201.405 62.6247C201.127 62.6664 200.843 62.6423 200.576 62.5542C200.309 62.4662 200.066 62.3168 199.867 62.1179C199.668 61.919 199.519 61.6762 199.431 61.4091C199.343 61.142 199.319 60.8579 199.36 60.5798C199.36 59.7336 199.36 57.9707 201.017 57.9707C202.674 57.9707 202.639 59.6278 202.639 60.7208C202.642 61.1039 202.583 61.485 202.463 61.849ZM203.591 190.043C203.652 190.417 203.652 190.798 203.591 191.171C203.513 191.392 203.371 191.584 203.182 191.723C202.993 191.861 202.767 191.939 202.533 191.947C202.246 191.998 201.95 191.979 201.672 191.89C201.393 191.801 201.141 191.646 200.936 191.438C200.731 191.229 200.58 190.974 200.496 190.694C200.412 190.415 200.397 190.118 200.453 189.832C200.453 188.986 200.453 187.223 202.146 187.223C203.838 187.223 203.591 188.95 203.591 190.043ZM216.777 132.574C215.014 132.574 212.018 131.446 212.018 124.007C212.018 119.142 213.287 113.959 216.777 113.959C220.268 113.959 222.031 117.837 222.031 123.866C222.031 128.062 220.021 132.574 216.777 132.574ZM221.607 153.023C221.607 157.607 219.386 160.921 216.319 160.921C213.886 160.921 212.335 157.783 212.335 152.741C212.335 149.392 213.216 143.081 216.566 143.081C219.915 143.081 221.607 146.712 221.607 153.023ZM215.649 107.754H215.296C211.453 107.754 211.03 102.5 210.748 99.3977C210.146 96.6811 210.547 93.8386 211.877 91.3943C212.476 90.724 213.308 90.3079 214.204 90.2309H214.556C216.389 90.2309 219.563 91.3238 220.197 98.6573C220.515 102.818 218.893 107.471 215.649 107.754ZM208.844 79.7595C207.881 79.7595 206.958 79.3769 206.277 78.6959C205.596 78.0149 205.213 77.0912 205.213 76.1281C205.213 75.1649 205.596 74.2413 206.277 73.5602C206.958 72.8792 207.881 72.4966 208.844 72.4966C210.713 72.4966 211.559 74.6473 211.559 76.798C211.462 77.5093 211.15 78.174 210.665 78.7033C210.18 79.2325 209.545 79.601 208.844 79.7595ZM208.844 171.04C210.713 171.04 211.559 173.226 211.559 175.341C211.462 176.052 211.15 176.717 210.665 177.246C210.18 177.776 209.545 178.144 208.844 178.303C207.881 178.303 206.958 177.92 206.277 177.239C205.596 176.558 205.213 175.634 205.213 174.671C205.213 173.708 205.596 172.784 206.277 172.103C206.958 171.422 207.881 171.04 208.844 171.04ZM194.742 46.6885C194.802 46.9793 194.802 47.2792 194.742 47.5699C194.673 47.7503 194.553 47.9066 194.396 48.0194C194.239 48.1322 194.053 48.1966 193.86 48.2046C193.64 48.2335 193.417 48.2115 193.207 48.1402C192.997 48.0689 192.806 47.9503 192.649 47.7936C192.493 47.6368 192.374 47.446 192.303 47.2361C192.232 47.0261 192.21 46.8026 192.238 46.5828C192.238 45.9129 192.238 44.5379 193.613 44.5379C194.988 44.5379 194.601 45.8424 194.601 46.6885H194.742ZM141.222 22.5023C143.784 21.9626 146.373 21.5624 148.978 21.3035H150.706C151.905 21.3035 153.068 21.1272 154.231 21.1272C172.389 21.1272 197.139 45.3135 197.139 120.693C197.139 185.143 185.363 227.028 151.763 227.028C149.824 227.028 147.779 227.028 145.664 226.675C134.135 224.63 109.561 218.954 109.561 121.116C109.596 43.0571 128.6 26.31 141.222 22.5023ZM71.0251 202.313L75.1149 203.088C75.1149 200.55 75.2207 198.082 75.4322 195.684C73.8456 195.684 72.2591 195.473 70.6372 195.332C69.0154 195.191 69.1917 192.934 70.6372 193.075C72.0828 193.216 73.8809 193.322 75.5027 193.393C75.5027 190.149 75.7142 187.011 75.7848 183.873C74.9386 183.873 74.0572 183.873 73.1757 183.873C71.695 183.873 71.695 181.476 73.1757 181.582C74.0924 181.582 74.9739 181.582 75.8553 181.582C75.8553 179.078 75.8553 176.575 76.0316 174.107H73.7399C72.2943 174.107 72.2943 171.71 73.7399 171.815H76.0668C76.0668 169.136 76.0668 166.421 76.0668 163.671L74.304 163.495C72.8584 163.495 72.8232 161.097 74.304 161.238H76.1021C76.1021 158.982 76.1021 156.62 76.1021 154.187C75.4797 154.222 74.8558 154.222 74.2335 154.187C72.7527 154.187 72.7527 151.789 74.2335 151.93H76.1021C76.1021 149.674 76.1021 147.382 76.1021 144.879C75.2559 144.879 74.3745 144.879 73.4931 144.879C72.0475 144.879 72.0475 142.446 73.4931 142.587C74.3745 142.587 75.2559 142.587 76.1373 142.587V135.536C75.5027 135.536 74.8328 135.536 74.1982 135.536C72.7174 135.536 72.7174 133.139 74.1982 133.244C74.8681 133.244 75.5027 133.244 76.1373 133.244V126.369C75.2559 126.369 74.4097 126.369 73.4931 126.193C72.5764 126.017 72.0475 123.795 73.4931 123.936H76.1373V116.885H74.9033C73.4578 116.885 73.4578 114.452 74.9033 114.593H76.1373V107.577H74.9033C73.4578 107.577 73.4578 105.18 74.9033 105.321H76.1373C76.1373 102.677 76.1373 100.103 76.1373 97.6348H74.9386C73.4931 97.6348 73.4931 95.2373 74.9386 95.3784H76.1021C76.1021 93.1219 76.1021 90.9007 76.1021 88.7501H73.5636C72.118 88.7501 72.118 86.3526 73.5636 86.4584C74.4097 86.4584 75.2559 86.4584 76.0668 86.6346C76.0668 84.3782 76.0668 82.1217 76.0668 79.9711C75.5027 79.9711 74.9386 79.9711 74.3745 79.9711C72.8937 79.9711 72.8937 77.5736 74.3745 77.6794C74.9386 77.6794 75.4675 77.6794 75.9963 77.6794C75.9963 75.4582 75.9963 73.237 75.9963 71.1216C75.1501 71.1216 74.304 71.1216 73.4225 71.1216C71.977 71.1216 71.977 68.7241 73.4225 68.8299C74.2561 68.8832 75.0922 68.8832 75.9258 68.8299C75.9258 66.5382 75.9258 64.2817 75.7495 62.0606C74.7401 62.1319 73.7268 62.1319 72.7174 62.0606C71.2719 62.0606 71.2719 59.6983 72.7174 59.7689C73.7157 59.822 74.716 59.822 75.7143 59.7689C75.7143 57.0893 75.538 54.4803 75.4674 51.9065C74.3745 51.9065 73.3168 51.9065 72.1886 51.9065C71.9191 51.8591 71.675 51.7182 71.4991 51.5087C71.3232 51.2991 71.2268 51.0343 71.2268 50.7607C71.2268 50.4871 71.3232 50.2223 71.4991 50.0127C71.675 49.8032 71.9191 49.6623 72.1886 49.6148C73.2607 49.6274 74.3326 49.5685 75.3969 49.4386L75.1854 41.8583C73.3168 42.1051 71.4482 42.4224 69.5795 42.5987C67.7109 42.775 67.8519 40.025 69.5795 39.8487C84.451 38.4594 99.0382 34.8958 112.875 29.2716C114.532 28.637 115.237 31.2812 113.615 31.9159C102.124 36.5808 90.1253 39.8822 77.8649 41.7526C77.8649 44.291 77.8649 46.8648 78.1117 49.4386L81.1438 49.0155C82.5541 48.7687 83.1887 50.9899 81.7432 51.2014L78.2175 51.7303C78.2175 54.304 78.2175 56.9483 78.429 59.6278L81.1086 59.3458C82.5893 59.1695 82.5541 61.4259 81.1086 61.6022L78.4995 61.9195C78.4995 64.1055 78.4995 66.3619 78.6758 68.6536L81.2143 68.3715C82.6599 68.16 82.6599 70.4517 81.2143 70.628L78.7111 70.9453C78.7111 73.1312 78.7111 75.3877 78.7111 77.6794C79.5573 77.6794 80.4387 77.6794 81.3201 77.6794C82.8009 77.5031 82.7656 79.7948 81.3201 79.9358C80.4387 79.9358 79.5925 79.9358 78.7463 79.9358C78.7463 82.0865 78.7463 84.3429 78.7463 86.5994C79.4867 86.5994 80.1919 86.5994 80.9675 86.5994C82.4131 86.5994 82.4131 88.7501 80.9675 88.8911C80.2271 88.8911 79.4867 88.8911 78.7816 88.8911C78.7816 91.0418 78.7816 93.2982 78.7816 95.5899C79.5681 95.6419 80.3573 95.6419 81.1438 95.5899C82.6246 95.5899 82.5894 97.7406 81.1438 97.8816C80.3329 97.8816 79.5573 97.8816 78.7816 97.8816C78.7816 100.385 78.7816 102.959 78.7816 105.603C79.4745 105.638 80.1688 105.638 80.8618 105.603C82.3073 105.603 82.3073 107.718 80.8618 107.859C80.1811 107.912 79.4975 107.912 78.8169 107.859V115.228C79.7093 115.28 80.604 115.28 81.4964 115.228C82.9772 115.228 82.9419 117.379 81.4964 117.52C80.0509 117.661 79.6983 117.52 78.8169 117.52V124.36C79.4863 124.394 80.1571 124.394 80.8265 124.36C82.272 124.36 82.272 126.51 80.8265 126.651C80.1571 126.686 79.4863 126.686 78.8169 126.651V133.703C79.6983 133.703 80.5797 133.703 81.4964 133.703C82.9772 133.703 82.9419 135.853 81.4964 135.994C80.0509 136.135 79.6983 135.994 78.8169 135.994C78.8169 138.427 78.8169 140.825 78.8169 143.046C79.381 143.046 79.9803 143.046 80.5797 143.046C82.0252 143.046 82.0252 145.196 80.5797 145.337C79.9803 145.337 79.381 145.337 78.8169 145.337C78.8169 147.7 78.8169 149.991 78.8169 152.389L81.5669 152.177C83.0124 152.177 83.0124 154.293 81.5669 154.469L78.7816 154.681C78.7816 157.113 78.7816 159.511 78.7816 161.732C79.7322 161.802 80.6868 161.802 81.6374 161.732C83.0829 161.732 83.0829 163.883 81.6374 164.024C80.6744 164.076 79.7093 164.076 78.7463 164.024V172.133C79.9451 172.133 81.1791 172.133 82.272 172.133C83.365 172.133 83.7176 174.283 82.272 174.424C81.039 174.495 79.803 174.495 78.5701 174.424C78.5701 176.857 78.5701 179.29 78.5701 181.723H80.756C82.2368 181.723 82.2015 183.838 80.756 183.979C80.0156 183.979 79.2399 183.979 78.4995 183.979C78.4995 187.117 78.3233 190.29 78.2175 193.569C79.1694 193.569 80.1566 193.569 81.1438 193.569C82.131 193.569 82.5894 195.72 81.1438 195.861C79.6983 196.002 79.1342 195.861 78.1117 195.861C78.1117 198.399 78.1117 201.043 77.7944 203.758C90.7967 206.028 103.626 209.197 116.189 213.242C117.846 213.842 117.141 216.451 115.449 215.887C100.664 211.197 85.5579 207.592 70.2494 205.098C68.5571 204.499 69.2975 201.89 71.0251 202.207V202.313ZM92.3908 90.9007C93.5543 90.9007 93.9773 92.5578 93.9773 93.6508C94.0379 94.0244 94.0379 94.4054 93.9773 94.779C93.8995 94.9997 93.7569 95.1917 93.5682 95.3301C93.3795 95.4685 93.1535 95.5467 92.9196 95.5546C92.6415 95.5964 92.3574 95.5723 92.0903 95.4842C91.8232 95.3962 91.5804 95.2468 91.3815 95.0479C91.1826 94.849 91.0332 94.6062 90.9451 94.3391C90.8571 94.072 90.833 93.7879 90.8747 93.5098C90.6984 92.5578 90.6984 90.795 92.3908 90.795V90.9007ZM89.9933 71.4389C89.9933 70.1344 90.9452 68.1953 92.3908 68.1953C93.8363 68.1953 94.7882 70.1344 94.7882 71.4389C94.7882 72.0747 94.5357 72.6846 94.0861 73.1342C93.6364 73.5838 93.0266 73.8364 92.3908 73.8364C91.7549 73.8364 91.1451 73.5838 90.6955 73.1342C90.2459 72.6846 89.9933 72.0747 89.9933 71.4389ZM92.8844 110.997C93.8363 110.997 94.1889 112.266 94.1889 113.148C94.2487 113.439 94.2487 113.739 94.1889 114.029C94.1185 114.206 93.997 114.357 93.8399 114.464C93.6829 114.571 93.4974 114.628 93.3075 114.629C93.0876 114.658 92.8641 114.636 92.6541 114.564C92.4442 114.493 92.2534 114.374 92.0967 114.218C91.9399 114.061 91.8213 113.87 91.75 113.66C91.6787 113.45 91.6567 113.227 91.6856 113.007C91.5446 112.266 91.5446 110.891 92.8844 110.891V110.997ZM94.6825 143.081C94.725 143.361 94.725 143.647 94.6825 143.927C94.6224 144.113 94.5044 144.275 94.3459 144.389C94.1873 144.503 93.9964 144.564 93.8011 144.562C93.5798 144.598 93.353 144.582 93.1395 144.513C92.926 144.445 92.7319 144.326 92.5733 144.168C92.4148 144.009 92.2963 143.815 92.2278 143.602C92.1592 143.388 92.1426 143.161 92.1792 142.94C92.1792 142.305 92.1792 140.93 93.519 140.93C94.8588 140.93 94.6825 142.2 94.6825 143.081ZM93.378 157.184C94.3299 157.184 94.6825 158.453 94.6825 159.334C94.725 159.615 94.725 159.9 94.6825 160.181C94.6224 160.367 94.5044 160.528 94.3459 160.643C94.1873 160.757 93.9964 160.817 93.8011 160.815C93.5798 160.852 93.353 160.835 93.1395 160.767C92.926 160.698 92.7319 160.58 92.5733 160.421C92.4148 160.263 92.2963 160.068 92.2278 159.855C92.1592 159.641 92.1426 159.415 92.1792 159.193C91.9324 158.629 91.9324 157.254 93.2722 157.254L93.378 157.184ZM93.8011 172.309C94.9645 172.309 95.3876 173.931 95.3876 175.059C95.3926 175.431 95.333 175.801 95.2113 176.152C95.1335 176.373 94.9909 176.565 94.8022 176.703C94.6135 176.841 94.3875 176.92 94.1536 176.928C93.8755 176.969 93.5914 176.945 93.3243 176.857C93.0571 176.769 92.8144 176.62 92.6155 176.421C92.4166 176.222 92.2672 175.979 92.1791 175.712C92.0911 175.445 92.067 175.161 92.1087 174.883C92.003 174.072 92.003 172.38 93.6953 172.38L93.8011 172.309ZM96.0575 188.88C97.503 188.88 98.455 190.819 98.455 192.123C98.455 193.428 97.9614 195.649 96.3748 195.649C94.7883 195.649 93.66 193.428 93.66 192.123C93.66 190.819 94.6825 188.95 95.9517 188.95L96.0575 188.88ZM96.3748 52.8232C95.4117 52.8232 94.488 52.4406 93.807 51.7596C93.1259 51.0786 92.7434 50.1549 92.7434 49.1918C92.7434 48.2286 93.1259 47.305 93.807 46.6239C94.488 45.9429 95.4117 45.5603 96.3748 45.5603C98.2787 45.5603 99.1249 47.711 99.1249 49.8616C99.0326 50.6048 98.706 51.2993 98.1926 51.8445C97.6791 52.3897 97.0054 52.7572 96.269 52.8937L96.3748 52.8232Z" fill="white"/>
<path d="M34.0304 216.628C59.5564 216.628 108.705 243 150.378 243C205.555 243 262.636 208.096 262.636 120.694C262.636 44.6091 211.197 4.87457 156.548 4.87457C113.006 4.87457 91.5697 22.6793 52.2935 22.6793C48.2068 22.8998 44.1083 22.7109 40.0593 22.1152C40.8891 19.6176 41.1199 16.9599 40.733 14.3567C40.3461 11.7535 39.3523 9.27776 37.8321 7.12946C36.3118 4.98117 34.3076 3.22053 31.9813 1.98976C29.655 0.758991 27.0718 0.0925836 24.4405 0.0443641C22.081 -0.12919 19.7118 0.207773 17.4943 1.03231C15.2768 1.85684 13.263 3.14958 11.5901 4.82249C9.91722 6.49539 8.62448 8.50917 7.79994 10.7267C6.97541 12.9442 6.63845 15.3134 6.812 17.6728C6.812 36.9231 30.0111 39.1796 47.7101 39.3911C59.7679 64.071 60.2615 94.2157 60.4731 120.694C60.8609 165.928 57.582 188.986 54.6909 200.48C44.7633 197.864 34.5632 196.42 24.2994 196.179C8.22228 196.073 0.148438 207.461 0.148438 218.038C0.172564 222.316 1.84685 226.42 4.82231 229.494C7.79776 232.568 11.8448 234.375 16.1198 234.538C18.5163 234.712 20.922 234.367 23.1736 233.528C25.4251 232.689 27.4698 231.376 29.1688 229.677C30.8678 227.978 32.1813 225.933 33.0202 223.682C33.859 221.43 34.2035 219.024 34.0304 216.628ZM5.47224 216.628C5.43226 214.673 5.86687 212.738 6.73883 210.988C7.61078 209.237 8.89408 207.725 10.4787 206.58C17.0365 201.82 25.604 202.278 33.5015 203.265C41.8748 204.602 50.1277 206.606 58.1814 209.259L59.3448 209.612C66.7841 178.832 66.7841 153.483 66.7136 124.184V117.662C66.7136 93.8278 65.0565 62.5902 52.6108 31.5641L47.0402 31.8814C39.3145 32.3973 31.5546 31.8396 23.9821 30.2243C20.2705 29.4392 16.9375 27.4121 14.5333 24.4774C13.4376 22.9467 12.7463 21.1639 12.5236 19.2947C12.2837 17.6051 12.3434 15.8865 12.6999 14.2177C13.0188 12.6524 13.6566 11.1695 14.5735 9.86149C15.4905 8.55345 16.667 7.44825 18.0297 6.61473C19.3924 5.78122 20.9122 5.23725 22.4943 5.01672C24.0765 4.79619 25.6871 4.90382 27.2258 5.33291C28.5668 5.70965 29.8144 6.36205 30.889 7.2484C31.9635 8.13475 32.8413 9.23554 33.4663 10.4804C33.9734 11.5938 34.2836 12.7867 34.3829 14.0061C34.4332 15.2743 34.2045 16.538 33.7131 17.7081C33.2883 18.633 32.68 19.4619 31.9251 20.1444C31.1702 20.827 30.2845 21.349 29.3216 21.6787C28.3588 22.0085 27.339 22.1391 26.3241 22.0626C25.3093 21.9861 24.3206 21.7041 23.418 21.2338C22.1446 20.6367 21.1592 19.5601 20.6769 18.2389C20.1947 16.9177 20.2549 15.4594 20.8443 14.1824C21.2758 13.3794 21.8921 12.6905 22.6424 12.1728C22.7768 12.0634 22.9323 11.9828 23.0991 11.9358C23.266 11.8888 23.4407 11.8765 23.6124 11.8997C23.7842 11.9228 23.9494 11.9808 24.0979 12.0703C24.2464 12.1597 24.375 12.2785 24.4757 12.4196C24.6761 12.6927 24.7624 13.033 24.7163 13.3686C24.6702 13.7041 24.4955 14.0086 24.2289 14.2177C23.7844 14.5068 23.4108 14.8924 23.136 15.3459C22.8678 16.01 22.8729 16.7533 23.1503 17.4137C23.4276 18.0741 23.9547 18.5981 24.6168 18.8716C25.7159 19.3969 26.9672 19.5095 28.1425 19.1889C28.7909 19.0102 29.3968 18.7027 29.9238 18.2848C30.4508 17.8668 30.8882 17.3469 31.2098 16.7562C31.545 16.0143 31.7135 15.208 31.7034 14.3939C31.7168 13.4426 31.5493 12.4974 31.2098 11.6086C30.7383 10.6876 30.0815 9.87388 29.2806 9.21863C28.4797 8.56338 27.5521 8.08071 26.5559 7.80089C25.3524 7.4672 24.0926 7.3879 22.8567 7.56807C21.6209 7.74824 20.4361 8.18391 19.378 8.84732C18.3199 9.51073 17.4116 10.3873 16.711 11.4212C16.0104 12.4551 15.5329 13.6236 15.3089 14.8523C15.058 16.2869 15.058 17.7542 15.3089 19.1889C15.4832 20.5937 16.0176 21.9297 16.8602 23.0672C18.8751 25.4019 21.5997 27.0119 24.6168 27.6506C31.9355 29.2048 39.4341 29.7387 46.8992 29.2371C55.2704 29.031 63.6199 28.2891 71.8963 27.0159C89.1722 24.0896 107.435 18.3427 127.391 14.535C137.624 12.3995 148.073 11.4765 158.523 11.7849C169.501 12.2557 180.332 14.4816 190.606 18.378C212.31 26.6146 230.295 42.4334 241.235 62.9075C252.553 83.5681 256.043 108.107 254.316 131.588C252.588 155.069 246.277 179.009 232.174 197.906C218.203 216.438 197.826 229.096 175.023 233.41C164.305 235.641 153.323 236.33 142.41 235.455C132.007 234.375 121.727 232.333 111.701 229.356C92.1338 223.891 74.2938 217.086 57.4762 211.903C49.5385 209.299 41.4028 207.342 33.1489 206.051C25.4277 205.028 17.4596 204.817 11.9948 208.836C10.7473 209.7 9.73567 210.862 9.05214 212.217C8.3686 213.572 8.03484 215.076 8.08125 216.593C8.00955 218.023 8.23928 219.453 8.75554 220.789C9.2718 222.125 10.0631 223.338 11.0781 224.349C12.1023 225.17 13.2873 225.767 14.5566 226.101C15.8259 226.435 17.1512 226.499 18.4468 226.288C19.5888 226.275 20.7127 226.001 21.733 225.488C22.7533 224.975 23.6431 224.235 24.3347 223.327C24.8675 222.483 25.1488 221.504 25.1456 220.506C25.1625 219.438 25.044 218.372 24.793 217.333C24.6547 216.484 24.3087 215.683 23.7859 215C23.263 214.317 22.5795 213.774 21.7962 213.419C21.1735 213.181 20.5099 213.067 19.8432 213.085C19.1766 213.103 18.5201 213.252 17.9111 213.524C17.3021 213.796 16.7527 214.185 16.2941 214.669C15.8355 215.153 15.4768 215.723 15.2384 216.346C14.6038 218.426 15.732 219.448 16.7192 219.66C17.2926 219.823 17.8859 219.906 18.4821 219.907C18.8227 219.877 19.1614 219.982 19.4251 220.2C19.6889 220.418 19.8566 220.73 19.8923 221.07C19.9226 221.396 19.8258 221.721 19.6221 221.977C19.4185 222.234 19.1237 222.401 18.7994 222.445H18.4821C17.6371 222.454 16.7948 222.348 15.9788 222.128C14.8144 221.806 13.8099 221.065 13.1583 220.048C12.7578 219.353 12.5182 218.578 12.4572 217.778C12.3962 216.979 12.5153 216.176 12.8057 215.429C13.5027 213.717 14.741 212.281 16.3314 211.339C17.2504 210.771 18.2878 210.421 19.3635 210.317C20.566 210.293 21.7621 210.496 22.8892 210.916C24.1091 211.401 25.1877 212.184 26.0256 213.194C26.8635 214.205 27.4338 215.41 27.6841 216.698C27.9928 217.956 28.1467 219.246 28.1425 220.541C28.1146 222.052 27.6758 223.527 26.8732 224.807C25.9555 226.079 24.7548 227.12 23.3659 227.848C21.977 228.576 20.4378 228.972 18.8699 229.003C17.2167 229.245 15.531 229.138 13.9217 228.689C12.3124 228.24 10.8153 227.458 9.52679 226.394C8.21208 225.15 7.17217 223.645 6.4739 221.975C5.77562 220.305 5.43442 218.508 5.47224 216.698V216.628Z" fill="white"/>
<path d="M93.4005 71.3326C93.4005 70.4864 92.7658 69.4287 92.378 69.4287C91.9902 69.4287 91.3556 70.4864 91.3556 71.3326C91.3141 71.4892 91.3091 71.6532 91.3411 71.812C91.373 71.9708 91.441 72.1201 91.5398 72.2485C91.6386 72.3769 91.7656 72.4808 91.9109 72.5524C92.0562 72.6239 92.216 72.6611 92.378 72.6611C92.54 72.6611 92.6998 72.6239 92.8452 72.5524C92.9905 72.4808 93.1174 72.3769 93.2162 72.2485C93.315 72.1201 93.383 71.9708 93.415 71.812C93.4469 71.6532 93.4419 71.4892 93.4005 71.3326Z" fill="white"/>
<path d="M96.2601 47.1133C95.6897 47.1133 95.1426 47.3399 94.7393 47.7432C94.336 48.1465 94.1094 48.6936 94.1094 49.264C94.1094 49.8343 94.336 50.3814 94.7393 50.7847C95.1426 51.188 95.6897 51.4146 96.2601 51.4146C96.5718 51.2829 96.8487 51.0806 97.069 50.8236C97.2892 50.5667 97.4468 50.2621 97.5293 49.9338C97.5293 48.5588 97.1062 47.1133 96.2601 47.1133Z" fill="white"/>
<path d="M96.2695 194.38C96.481 194.38 97.0098 193.323 97.0098 192.194C97.0098 191.066 96.34 190.291 95.9521 190.291C95.5643 190.291 94.9297 191.348 94.9297 192.194C94.9297 193.041 95.8816 194.38 96.2695 194.38Z" fill="white"/>
<path d="M208.831 176.858C209.144 176.718 209.421 176.509 209.64 176.246C209.86 175.984 210.018 175.675 210.1 175.342C210.1 173.967 209.642 172.521 208.831 172.521C208.295 172.558 207.794 172.804 207.438 173.206C207.082 173.609 206.898 174.135 206.927 174.672C206.908 174.941 206.942 175.211 207.027 175.466C207.113 175.722 207.248 175.958 207.425 176.161C207.602 176.364 207.817 176.53 208.058 176.65C208.3 176.769 208.562 176.84 208.831 176.858Z" fill="white"/>
<path fill-rule="evenodd" clip-rule="evenodd" d="M310.055 134.121C310.46 133.581 310.791 133.152 311.104 132.704C312.86 130.337 314.927 128.224 317.247 126.423C318.332 125.528 319.38 124.559 320.521 123.776C321.487 123.115 322.508 122.541 323.574 122.061C323.868 121.912 324.347 122.061 324.714 122.229C324.758 122.335 324.78 122.449 324.78 122.565C324.78 122.68 324.758 122.794 324.714 122.9C324.076 123.754 323.382 124.564 322.636 125.323C321.193 126.784 320.06 128.528 319.307 130.449C318.853 131.468 318.43 132.512 318.038 133.581C317.843 134.124 317.701 134.686 317.615 135.258C317.312 136.773 317.091 138.304 316.953 139.843C316.787 142.658 316.714 145.435 316.677 148.306C316.677 150.524 316.677 152.723 316.677 154.941C316.677 158.017 316.677 161.093 316.677 164.168C316.677 167.244 316.787 169.909 316.787 172.798C316.787 175.687 316.787 178.39 316.787 181.279C316.787 182.118 316.658 182.957 316.64 183.795C316.64 184.168 316.861 184.522 316.842 184.877C316.842 185.827 316.732 186.741 316.732 187.71C316.732 188.269 316.897 188.81 316.897 189.369C316.897 192.071 316.897 194.756 316.897 197.458C316.897 199.546 317.008 201.615 317.045 203.702C317.042 203.972 317.106 204.238 317.231 204.476C317.356 204.714 317.539 204.916 317.762 205.063L321.312 207.598C322.139 208.157 322.949 208.754 323.813 209.276C324.105 209.482 324.443 209.611 324.796 209.65C325.15 209.689 325.508 209.638 325.836 209.499C326.128 209.396 326.38 209.202 326.556 208.944C326.731 208.685 326.82 208.377 326.811 208.064C326.811 206.2 326.958 204.336 327.013 202.621C327.013 200.515 327.161 198.428 327.179 196.321C327.179 195.24 327.05 194.14 327.032 193.059C327.032 191.344 327.032 189.63 327.032 187.915C327.032 185.622 327.032 183.329 327.032 181.037C327.032 178.465 327.142 175.874 327.161 173.301C327.161 172.78 326.94 172.258 326.921 171.736C326.811 169.741 326.738 167.747 326.646 165.734C326.646 164.727 326.498 163.721 326.37 162.696C326.321 162.305 326.371 161.908 326.516 161.543C326.661 161.177 326.895 160.856 327.197 160.608C327.888 160.032 328.619 159.508 329.386 159.042C330.435 158.371 331.52 157.719 332.586 157.178C334.113 156.302 335.676 155.519 337.185 154.606C338.693 153.693 340.275 152.742 341.746 151.624C342.692 150.902 343.589 150.117 344.431 149.275C344.965 148.772 345.388 148.157 345.921 147.635C346.401 147.162 346.924 146.738 347.485 146.367C347.61 146.322 347.744 146.308 347.875 146.328C348.007 146.347 348.132 146.399 348.239 146.479C348.717 146.889 349.085 147.448 349.581 147.84C350.759 148.753 351.991 149.704 353.26 150.505C353.578 150.726 353.91 150.925 354.253 151.102C356.197 152.099 358.272 152.808 360.415 153.208C361.518 153.45 362.64 153.655 363.744 153.916C363.858 153.974 363.956 154.062 364.027 154.169C364.098 154.277 364.14 154.402 364.148 154.531C364.078 154.913 363.907 155.267 363.652 155.557C363.289 155.95 363.028 156.428 362.894 156.949C362.759 157.469 362.754 158.016 362.879 158.539C362.944 159.009 362.944 159.486 362.879 159.955C362.659 162.542 362.659 165.142 362.879 167.728C363.008 169.443 362.879 171.195 362.879 172.91C362.879 174.01 362.879 175.091 362.971 176.172C362.971 176.638 362.971 177.085 362.971 177.533C362.971 179.397 362.971 181.26 362.971 183.124C362.971 183.553 362.971 183.982 362.971 184.429C362.971 184.877 362.971 185.529 362.971 186.069C362.971 186.61 362.879 187.579 362.824 188.325C362.806 188.48 362.806 188.636 362.824 188.791C362.824 190.04 363.063 191.289 363.082 192.519C363.082 194.383 363.082 196.247 363.082 198.111C363.082 199.453 363.266 200.813 363.229 202.155C363.228 202.617 363.089 203.068 362.829 203.447C362.57 203.827 362.202 204.118 361.776 204.28C361.57 204.407 361.378 204.557 361.206 204.728C359.789 206.014 358.41 207.319 356.975 208.567C355.89 209.499 354.731 210.431 353.646 211.289C351.421 213.153 349.25 215.017 347.025 216.881C345.756 217.924 344.395 218.856 343.089 219.826C342.942 219.938 342.758 220.031 342.684 220.18C342.298 220.963 341.544 220.87 340.845 221C340.737 220.999 340.631 220.976 340.532 220.931C340.434 220.886 340.346 220.82 340.275 220.739C338.64 219.242 336.859 217.918 334.959 216.787C333.984 216.172 333.12 215.501 332.071 214.924C331.446 214.569 330.784 214.327 330.122 214.029C328.945 213.526 327.749 213.041 326.59 212.519C326.393 212.416 326.169 212.376 325.948 212.406C325.728 212.436 325.522 212.534 325.358 212.687C324.31 213.526 323.225 214.29 322.176 215.11C320.833 216.154 319.528 217.216 318.203 218.279C317.909 218.521 317.652 218.838 317.376 219.117C317.18 219.394 316.931 219.627 316.642 219.802C316.354 219.976 316.034 220.089 315.701 220.133C315.368 220.177 315.029 220.15 314.707 220.056C314.384 219.961 314.084 219.8 313.826 219.583C311.711 218.26 309.687 216.825 307.572 215.464C305.991 214.458 304.354 213.488 302.717 212.519C302.563 212.413 302.386 212.349 302.202 212.333C301.392 212.333 301.3 211.68 301.245 211.158C301.19 210.636 301.65 210.375 302.11 210.226C302.738 209.986 303.28 209.558 303.664 208.999C304.049 208.44 304.257 207.776 304.262 207.095C304.415 205.273 304.476 203.444 304.446 201.615C304.446 200.515 304.446 199.434 304.446 198.334C304.446 195.781 304.446 193.227 304.317 190.673C304.188 188.12 304.114 185.305 304.078 182.621C304.078 181.316 304.078 179.993 304.078 178.67C304.078 176.955 304.078 175.259 304.078 173.544C304.078 172.202 304.206 170.86 304.206 169.518C304.206 168.492 304.078 167.467 304.078 166.442C304.078 164.336 304.078 162.23 304.078 160.123C304.078 158.949 303.949 157.756 303.912 156.582C303.912 156.265 304.023 155.929 304.041 155.612C304.041 154.904 304.041 154.177 304.041 153.45C304.041 151.773 304.041 150.095 304.041 148.399C304.041 145.939 304.041 143.46 303.875 140.943C303.784 140.185 303.655 139.433 303.489 138.688C303.489 138.091 303.342 137.495 303.305 136.824C303.223 135.91 302.961 135.023 302.533 134.214C302.165 133.487 301.889 132.686 301.539 131.94C300.749 130.319 299.921 128.716 299.148 127.113C299.24 126.982 299.24 126.591 299.24 126.479C299.24 126.367 299.847 126.05 300.05 126.143C300.908 126.51 301.733 126.953 302.514 127.467C303.839 128.399 305.108 129.331 306.377 130.393C307.833 131.379 309.083 132.646 310.055 134.121ZM349.618 165.808H349.765C349.581 165.473 349.489 165.007 349.214 164.802C348.331 164.131 347.374 163.534 346.436 162.938C345.498 162.341 344.266 161.652 343.236 160.906C342.206 160.161 340.9 159.042 339.741 158.11C339.612 157.998 339.337 157.887 339.281 157.924C339.149 158.066 339.071 158.251 339.061 158.446C339.061 158.837 339.189 159.229 339.189 159.62C339.189 163.012 339.189 166.405 339.189 169.797C339.189 172.612 339.061 175.389 339.006 178.222C338.95 181.055 339.006 183.665 338.895 186.405C338.895 188.455 338.895 190.524 338.895 192.575C338.895 193.786 338.895 194.998 338.895 196.303C338.895 197.607 338.895 199.229 338.895 200.702C338.895 201.801 338.895 202.901 340.219 203.218C340.219 203.218 340.348 203.218 340.422 203.348L344.321 205.865C345.921 206.927 347.503 208.008 349.085 209.089C349.637 209.481 350.207 209.294 350.262 208.623C350.317 207.952 350.372 207.095 350.391 206.331C350.391 204.001 350.391 201.671 350.391 199.341C350.391 194.662 350.391 190.021 350.391 185.324C350.391 184.038 350.391 182.733 350.391 181.447C350.391 180.161 350.207 179.359 350.188 178.315C350.188 176.004 350.188 173.693 350.188 171.382C350.188 170.785 350.188 170.207 350.096 169.518L349.618 165.808Z" fill="white"/>
<path d="M494.867 330.382L505.379 327.78C526.778 322.404 548.896 316.823 560.811 318.193C563.277 298.06 579.266 276.011 597.173 252.728C602.412 241.601 606.794 231.089 610.423 221.263L608.301 220.646C608.133 220.599 607.976 220.519 607.84 220.41C607.703 220.302 607.59 220.167 607.507 220.013C607.424 219.86 607.373 219.692 607.356 219.518C607.34 219.344 607.358 219.169 607.41 219.003C607.464 218.825 607.553 218.66 607.674 218.518C607.795 218.377 607.944 218.262 608.111 218.181C608.279 218.101 608.462 218.056 608.647 218.05C608.833 218.044 609.018 218.077 609.191 218.147C610.013 218.421 610.697 218.592 611.451 218.798C612.786 215.066 614.053 211.368 615.183 207.841H614.601L612.615 207.191C612.274 207.095 611.986 206.868 611.813 206.56C611.64 206.252 611.595 205.888 611.69 205.547C611.819 205.246 612.055 205.003 612.351 204.864C612.648 204.725 612.986 204.7 613.299 204.794L615.148 205.308H615.833C616.929 201.644 617.922 198.083 618.778 194.659L616.895 194.146C616.727 194.099 616.57 194.018 616.434 193.91C616.297 193.801 616.184 193.666 616.101 193.512C616.018 193.359 615.967 193.191 615.95 193.017C615.934 192.844 615.952 192.668 616.004 192.502C616.055 192.333 616.139 192.176 616.251 192.039C616.363 191.903 616.501 191.79 616.657 191.707C616.813 191.624 616.984 191.573 617.16 191.557C617.336 191.54 617.513 191.559 617.682 191.612L619.394 192.091C620.079 189.044 620.661 186.1 621.14 183.292H620.01C619.839 183.267 619.673 183.208 619.525 183.118C619.376 183.029 619.247 182.91 619.145 182.77C619.043 182.629 618.97 182.47 618.93 182.301C618.891 182.132 618.885 181.957 618.915 181.785C618.93 181.609 618.983 181.437 619.07 181.282C619.156 181.127 619.274 180.992 619.416 180.885C619.558 180.779 619.721 180.703 619.894 180.663C620.067 180.624 620.247 180.621 620.421 180.656H621.551C621.996 177.54 622.27 174.595 622.407 171.753H619.462C619.272 171.784 619.076 171.773 618.89 171.721C618.704 171.669 618.531 171.577 618.384 171.452C618.237 171.327 618.118 171.171 618.037 170.995C617.956 170.82 617.914 170.629 617.914 170.435C617.914 170.242 617.956 170.051 618.037 169.875C618.118 169.7 618.237 169.544 618.384 169.418C618.531 169.293 618.704 169.201 618.89 169.149C619.076 169.097 619.272 169.086 619.462 169.117H622.578C622.661 166.049 622.489 162.98 622.065 159.941C622.065 159.291 621.791 158.674 621.654 158.058H620.798H618.915C618.602 158.007 618.317 157.847 618.111 157.605C617.905 157.364 617.792 157.057 617.792 156.74C617.792 156.423 617.905 156.116 618.111 155.874C618.317 155.633 618.602 155.472 618.915 155.422H621.106C620.53 152.696 619.787 150.009 618.88 147.375C618.127 147.615 617.477 147.923 616.621 148.129H616.313C616.019 148.12 615.736 148.02 615.502 147.841C615.269 147.663 615.097 147.417 615.011 147.136C614.965 146.967 614.954 146.791 614.977 146.618C615.001 146.444 615.059 146.278 615.149 146.127C615.238 145.977 615.357 145.847 615.498 145.743C615.639 145.64 615.8 145.566 615.97 145.527C616.758 145.287 617.34 145.047 618.024 144.808C616.741 141.538 615.196 138.378 613.402 135.358C612.375 135.905 611.416 136.385 610.663 136.727C610.483 136.774 610.295 136.774 610.115 136.727C609.863 136.735 609.615 136.668 609.401 136.534C609.188 136.399 609.019 136.204 608.917 135.974C608.836 135.817 608.788 135.646 608.775 135.47C608.763 135.295 608.786 135.118 608.844 134.952C608.901 134.785 608.992 134.632 609.111 134.502C609.229 134.371 609.373 134.267 609.533 134.193C610.252 133.885 611.142 133.406 612.135 132.892C609.956 129.506 607.494 126.31 604.774 123.34C603.987 123.785 603.199 124.264 602.377 124.812C602.16 124.943 601.912 125.014 601.658 125.017C601.365 125.035 601.074 124.953 600.833 124.784C600.592 124.615 600.416 124.37 600.333 124.088C600.249 123.806 600.264 123.504 600.374 123.231C600.484 122.959 600.683 122.731 600.939 122.587C601.624 122.141 602.275 121.731 602.959 121.354C598.77 117.041 594.185 113.132 589.264 109.678C574.952 108.925 561.257 108.104 550.779 107.35C542.391 106.768 535.783 106.289 532.77 106.186L528.113 105.981C509.214 105.262 485.007 104.337 464.189 107.111C467.819 116.424 471.551 126.216 475.249 136.145C477.237 135.655 479.265 135.345 481.309 135.221C481.659 135.219 481.996 135.348 482.256 135.582C482.516 135.817 482.679 136.139 482.713 136.487C482.722 136.663 482.696 136.838 482.638 137.004C482.579 137.169 482.488 137.322 482.371 137.452C482.253 137.583 482.111 137.689 481.952 137.764C481.793 137.839 481.621 137.883 481.446 137.891C479.668 137.995 477.903 138.259 476.173 138.679C477.337 141.863 478.433 145.013 479.597 148.197L481.925 147.41L484.082 146.691C484.246 146.632 484.42 146.606 484.594 146.616C484.768 146.625 484.939 146.67 485.095 146.746C485.251 146.823 485.391 146.93 485.505 147.062C485.619 147.194 485.706 147.347 485.76 147.512C485.818 147.679 485.842 147.855 485.83 148.031C485.819 148.206 485.771 148.378 485.691 148.535C485.611 148.691 485.5 148.83 485.365 148.943C485.229 149.056 485.073 149.14 484.904 149.19L482.815 149.909L480.453 150.697C481.412 153.367 482.37 156.038 483.26 158.743C484.288 158.572 485.349 158.366 486.684 158.058C487.028 157.993 487.384 158.059 487.681 158.243C487.979 158.426 488.197 158.715 488.294 159.051C488.334 159.222 488.341 159.399 488.313 159.572C488.285 159.746 488.223 159.912 488.131 160.062C488.039 160.211 487.918 160.341 487.775 160.444C487.633 160.546 487.472 160.62 487.301 160.66L483.877 161.311C485.007 164.735 486 168.158 487.027 171.582C487.903 171.32 488.761 171 489.595 170.624C489.756 170.55 489.931 170.509 490.109 170.504C490.286 170.498 490.463 170.528 490.629 170.592C490.795 170.656 490.946 170.752 491.074 170.875C491.202 170.998 491.305 171.145 491.375 171.308C491.513 171.631 491.519 171.995 491.391 172.322C491.263 172.649 491.011 172.912 490.69 173.055C489.76 173.48 488.798 173.835 487.814 174.116C488.122 175.212 488.533 176.307 488.841 177.54C489.321 179.149 489.903 181.272 490.553 183.634C492.207 183.148 493.904 182.827 495.621 182.676C495.967 182.675 496.3 182.805 496.555 183.04C496.809 183.275 496.964 183.597 496.99 183.942C497.004 184.116 496.983 184.291 496.928 184.456C496.873 184.622 496.786 184.774 496.671 184.905C496.556 185.036 496.416 185.143 496.259 185.218C496.102 185.294 495.932 185.338 495.758 185.346C494.236 185.465 492.731 185.753 491.272 186.202C492.128 189.284 493.121 193.05 494.183 196.885L497.607 195.858L499.113 195.412C499.285 195.354 499.467 195.331 499.648 195.346C499.829 195.36 500.005 195.411 500.165 195.496C500.326 195.58 500.467 195.697 500.581 195.838C500.695 195.979 500.779 196.142 500.828 196.317C500.877 196.492 500.89 196.674 500.866 196.854C500.842 197.034 500.781 197.207 500.688 197.363C500.595 197.519 500.471 197.654 500.324 197.76C500.177 197.866 500.009 197.941 499.832 197.98L498.326 198.425L494.902 199.453C495.723 202.534 496.579 205.855 497.47 209.348C498.882 209.051 500.277 208.674 501.647 208.218C501.983 208.122 502.343 208.161 502.65 208.327C502.957 208.494 503.187 208.774 503.29 209.108C503.343 209.277 503.362 209.454 503.345 209.63C503.329 209.806 503.278 209.977 503.195 210.133C503.113 210.289 503 210.427 502.863 210.539C502.727 210.651 502.569 210.735 502.4 210.786C501.038 211.157 499.655 211.443 498.257 211.642C499.147 215.066 500.038 218.798 500.962 222.564H501.647H502.195C502.795 222.389 503.418 222.308 504.043 222.324C504.401 222.351 504.733 222.516 504.97 222.785C505.207 223.054 505.329 223.404 505.31 223.762C505.284 224.098 505.132 224.412 504.885 224.641C504.637 224.869 504.312 224.996 503.975 224.995H503.804C503.463 224.951 503.118 224.951 502.777 224.995H502.092H501.578C502.195 227.563 502.845 230.199 503.461 232.904L506.406 232.356L508.289 232.014C508.463 231.979 508.641 231.981 508.814 232.018C508.988 232.055 509.151 232.127 509.295 232.23C509.44 232.332 509.561 232.463 509.653 232.615C509.745 232.766 509.805 232.934 509.83 233.109C509.881 233.453 509.8 233.803 509.603 234.089C509.406 234.375 509.108 234.576 508.768 234.65L506.851 234.958L504.043 235.472C504.66 238.04 505.242 240.642 505.824 243.244L506.783 243.073C507.81 243.073 508.837 242.696 509.83 242.457C510.165 242.388 510.513 242.445 510.809 242.615C511.105 242.785 511.329 243.058 511.439 243.381C511.523 243.726 511.471 244.09 511.292 244.396C511.113 244.703 510.822 244.928 510.48 245.025C509.419 245.298 508.323 245.504 507.056 245.675L506.474 245.88C507.125 248.859 507.775 251.872 508.426 254.954C509.63 254.744 510.788 254.327 511.85 253.721C511.993 253.626 512.154 253.559 512.324 253.526C512.493 253.494 512.667 253.495 512.836 253.53C513.005 253.565 513.165 253.633 513.307 253.731C513.45 253.828 513.571 253.953 513.665 254.098C513.798 254.247 513.896 254.424 513.951 254.616C514.007 254.808 514.019 255.01 513.986 255.207C513.953 255.404 513.876 255.592 513.762 255.755C513.647 255.919 513.496 256.054 513.322 256.152C511.964 256.935 510.482 257.48 508.94 257.761C509.487 260.466 510.069 263.171 510.617 265.91H510.823L512.295 265.499L512.911 265.294C513.516 264.982 514.183 264.807 514.863 264.78C515.217 264.78 515.557 264.921 515.807 265.171C516.058 265.422 516.198 265.761 516.198 266.116C516.198 266.47 516.058 266.809 515.807 267.06C515.557 267.31 515.217 267.451 514.863 267.451C514.543 267.498 514.232 267.59 513.938 267.725C513.642 267.869 513.333 267.983 513.014 268.067L511.405 268.478H511.131C511.85 272.142 512.535 275.805 513.185 279.503C514.357 279.423 515.511 279.169 516.609 278.75C516.768 278.677 516.94 278.636 517.116 278.631C517.291 278.626 517.465 278.657 517.628 278.72C517.791 278.784 517.939 278.881 518.064 279.003C518.189 279.126 518.288 279.273 518.355 279.435C518.496 279.753 518.506 280.114 518.385 280.44C518.263 280.766 518.019 281.032 517.705 281.181C516.447 281.656 515.136 281.978 513.802 282.139C514.384 285.563 514.966 288.782 515.513 292.103H515.787C516.963 291.976 518.115 291.688 519.211 291.247C519.534 291.109 519.898 291.103 520.225 291.231C520.552 291.359 520.815 291.611 520.957 291.932C521.032 292.089 521.074 292.259 521.081 292.432C521.088 292.606 521.061 292.779 521 292.942C520.94 293.105 520.847 293.254 520.728 293.38C520.609 293.506 520.466 293.608 520.307 293.678C518.932 294.215 517.493 294.571 516.027 294.739H515.787C516.472 299.156 517.157 303.539 517.773 307.921C524.506 306.007 531.373 304.599 538.316 303.71L547.835 302.683C548.19 302.661 548.54 302.771 548.818 302.993C549.096 303.214 549.283 303.53 549.341 303.881C549.365 304.05 549.355 304.222 549.31 304.387C549.266 304.552 549.189 304.707 549.083 304.841C548.978 304.975 548.846 305.087 548.696 305.169C548.546 305.251 548.382 305.302 548.212 305.319C544.788 305.661 541.809 305.97 538.659 306.346C528.235 307.75 517.979 310.205 508.049 313.673C507.914 313.707 507.773 313.707 507.639 313.673C507.362 313.67 507.093 313.583 506.867 313.424C506.641 313.266 506.468 313.042 506.372 312.783C506.313 312.617 506.289 312.441 506.301 312.265C506.313 312.089 506.36 311.918 506.44 311.761C506.52 311.604 506.631 311.465 506.767 311.352C506.902 311.24 507.059 311.156 507.228 311.105C510.035 310.147 512.774 309.291 515.411 308.503C514.794 304.155 514.144 299.772 513.425 295.39C512.253 295.724 511.108 296.147 510.001 296.657C509.81 296.707 509.61 296.707 509.419 296.657C509.13 296.642 508.853 296.533 508.631 296.347C508.409 296.161 508.253 295.908 508.187 295.626C508.122 295.344 508.149 295.048 508.267 294.783C508.384 294.518 508.584 294.298 508.837 294.157C510.215 293.489 511.661 292.972 513.151 292.616C512.603 289.193 512.021 285.974 511.439 282.653C509.998 283.002 508.589 283.471 507.228 284.057C507.037 284.106 506.836 284.106 506.646 284.057C506.399 284.058 506.158 283.987 505.951 283.854C505.745 283.72 505.581 283.529 505.481 283.304C505.325 282.99 505.299 282.627 505.408 282.294C505.517 281.961 505.752 281.684 506.064 281.523C507.509 280.909 509.011 280.439 510.549 280.119C509.898 276.49 509.214 272.895 508.494 269.3C507.619 269.584 506.709 269.745 505.79 269.779H505.31C504.995 269.708 504.716 269.524 504.526 269.262C504.335 269 504.247 268.678 504.276 268.356C504.305 268.034 504.45 267.733 504.685 267.51C504.919 267.287 505.227 267.156 505.55 267.143C506.392 267.147 507.228 266.996 508.015 266.698C507.433 263.959 506.885 261.219 506.337 258.48H505.995L504.454 258.925H504.146C503.848 258.934 503.557 258.84 503.32 258.659C503.083 258.479 502.916 258.222 502.845 257.933C502.804 257.762 502.798 257.584 502.826 257.411C502.854 257.238 502.915 257.071 503.008 256.922C503.1 256.772 503.221 256.643 503.363 256.54C503.506 256.437 503.667 256.364 503.838 256.323L505.173 255.947L505.79 255.741C505.139 252.66 504.454 249.647 503.838 246.668C503.335 246.786 502.842 246.947 502.366 247.147H501.818C501.562 247.152 501.311 247.08 501.097 246.939C500.883 246.799 500.716 246.597 500.62 246.36C500.546 246.201 500.506 246.028 500.501 245.853C500.496 245.678 500.526 245.504 500.59 245.341C500.654 245.178 500.75 245.029 500.873 244.904C500.996 244.779 501.142 244.681 501.304 244.614C501.926 244.357 502.567 244.151 503.222 243.997C502.64 241.395 502.058 238.827 501.51 236.294C501.065 236.294 500.654 236.499 500.174 236.67H499.729C499.429 236.649 499.144 236.527 498.922 236.323C498.7 236.119 498.553 235.847 498.505 235.549C498.458 235.252 498.512 234.947 498.66 234.684C498.807 234.421 499.04 234.216 499.318 234.102C499.834 233.923 500.36 233.774 500.893 233.657C500.277 230.987 499.627 228.35 499.01 225.782C498.361 226.067 497.664 226.23 496.956 226.262C496.619 226.263 496.294 226.136 496.046 225.908C495.799 225.679 495.647 225.365 495.621 225.029C495.61 224.673 495.735 224.327 495.971 224.06C496.206 223.793 496.533 223.626 496.888 223.591C497.278 223.604 497.666 223.522 498.017 223.351H498.463C497.538 219.517 496.614 215.785 495.723 212.292C495.073 212.292 494.388 212.532 493.669 212.737H493.292C492.965 212.761 492.64 212.661 492.383 212.455C492.126 212.249 491.957 211.954 491.91 211.629C491.862 211.303 491.939 210.972 492.126 210.701C492.313 210.43 492.595 210.24 492.916 210.169C493.624 209.964 494.345 209.804 495.073 209.69C494.183 206.266 493.361 202.842 492.539 199.898L490.656 200.411H490.314C489.982 200.423 489.657 200.31 489.404 200.095C489.151 199.88 488.987 199.578 488.944 199.249C488.901 198.919 488.983 198.586 489.173 198.313C489.363 198.041 489.647 197.849 489.971 197.775L491.854 197.261C490.793 193.255 489.8 189.66 488.944 186.545L487.78 186.819C487.553 186.854 487.322 186.854 487.095 186.819H486.582C486.262 186.792 485.963 186.652 485.739 186.424C485.514 186.195 485.379 185.894 485.358 185.574C485.338 185.255 485.432 184.938 485.626 184.683C485.819 184.427 486.097 184.249 486.41 184.182C487.023 184.082 487.629 183.944 488.225 183.771C487.575 181.477 486.993 179.389 486.513 177.779C486.205 176.718 485.828 175.588 485.486 174.356L483.637 174.938H483.226C482.923 174.923 482.634 174.805 482.407 174.604C482.179 174.403 482.027 174.131 481.975 173.832C481.923 173.533 481.975 173.225 482.121 172.959C482.268 172.694 482.501 172.486 482.781 172.37C483.5 172.096 484.151 171.925 484.699 171.753C483.671 168.33 482.644 164.906 481.514 161.482L479.597 161.927H479.083C478.786 161.935 478.494 161.841 478.257 161.661C478.02 161.48 477.853 161.223 477.782 160.934C477.699 160.594 477.753 160.234 477.932 159.933C478.111 159.632 478.402 159.414 478.741 159.325L480.487 158.914C479.597 156.312 478.638 153.675 477.748 151.039C477.097 151.232 476.434 151.381 475.762 151.484H475.659C475.347 151.488 475.044 151.379 474.805 151.178C474.566 150.977 474.408 150.697 474.358 150.388C474.329 150.215 474.334 150.038 474.373 149.867C474.412 149.696 474.485 149.534 474.587 149.391C474.688 149.248 474.817 149.126 474.966 149.033C475.115 148.94 475.281 148.877 475.454 148.848C475.933 148.848 476.447 148.608 476.961 148.505C475.831 145.321 474.735 142.171 473.537 139.055C472.441 139.364 471.38 139.672 470.352 140.048H469.907C469.713 140.079 469.515 140.067 469.326 140.013C469.137 139.96 468.962 139.867 468.812 139.74C468.753 139.576 468.727 139.402 468.737 139.228C468.746 139.054 468.791 138.884 468.868 138.727C468.944 138.571 469.051 138.431 469.183 138.317C469.315 138.203 469.468 138.116 469.633 138.062C470.626 137.686 471.722 137.412 472.783 137.07C469.051 127.003 465.251 117.074 461.587 107.693C456.351 108.45 451.178 109.595 446.111 111.117L442.688 112.212C492.094 195.412 499.387 259.747 494.867 330.382ZM485.554 118.444C485.491 118.605 485.383 118.745 485.244 118.847C485.105 118.95 484.94 119.012 484.767 119.026C484.558 119.054 484.345 119.034 484.146 118.966C483.946 118.899 483.764 118.786 483.615 118.637C483.466 118.488 483.353 118.306 483.286 118.106C483.218 117.907 483.198 117.694 483.226 117.485C483.226 116.869 483.226 115.568 484.493 115.568C485.76 115.568 485.691 116.8 485.691 117.622C485.701 117.902 485.655 118.182 485.554 118.444ZM492.779 137.172C492.703 137.387 492.565 137.573 492.382 137.707C492.198 137.842 491.979 137.918 491.752 137.926C491.479 137.972 491.199 137.953 490.935 137.87C490.671 137.788 490.431 137.643 490.234 137.45C490.036 137.256 489.888 137.018 489.801 136.755C489.713 136.493 489.69 136.213 489.732 135.94C489.732 135.118 489.732 133.44 491.375 133.44C493.019 133.44 492.95 135.015 492.95 136.111C492.955 136.472 492.897 136.831 492.779 137.172ZM499.318 159.804C498.172 159.589 497.138 158.981 496.393 158.083C495.648 157.186 495.241 156.057 495.241 154.891C495.241 153.725 495.648 152.596 496.393 151.698C497.138 150.801 498.172 150.192 499.318 149.978C501.818 149.978 502.742 153.093 502.742 155.764C502.537 157.442 500.757 159.804 499.147 159.804H499.318ZM507.57 189.215H507.193C503.77 189.215 503.29 184.97 503.153 182.95C502.723 180.969 503.066 178.899 504.112 177.163C504.719 176.488 505.568 176.082 506.474 176.033H506.885C508.255 176.033 511.473 176.615 511.953 182.299C512.021 185.449 510.412 188.976 507.399 189.215H507.57ZM514.931 219.859C511.199 219.859 510.754 214.792 510.515 211.744C510.301 210.771 510.281 209.764 510.458 208.783C510.634 207.802 511.002 206.865 511.542 206.027C511.91 205.617 512.359 205.288 512.859 205.058C513.359 204.829 513.902 204.704 514.452 204.691C515.141 204.596 515.842 204.668 516.498 204.901C517.153 205.133 517.743 205.519 518.218 206.027C518.88 206.928 519.352 207.954 519.605 209.042C519.858 210.131 519.887 211.26 519.691 212.361C519.314 217.12 517.842 219.619 515.24 219.859H514.931ZM519.759 245.23H519.485C518.957 245.244 518.431 245.148 517.941 244.948C517.452 244.747 517.01 244.447 516.643 244.066C516.148 243.452 515.783 242.744 515.571 241.985C515.359 241.225 515.304 240.43 515.411 239.649C515.394 238.412 515.836 237.213 516.652 236.284C517.468 235.354 518.599 234.76 519.828 234.616C522.053 234.616 523.251 237.424 523.251 240.128C523.251 242.833 521.916 245.093 519.588 245.23H519.759ZM524.21 268.957C523.064 268.743 522.029 268.134 521.285 267.237C520.54 266.339 520.132 265.21 520.132 264.044C520.132 262.878 520.54 261.749 521.285 260.852C522.029 259.954 523.064 259.346 524.21 259.131C526.744 259.131 527.634 262.247 527.634 264.952C527.463 266.595 525.682 268.957 524.039 268.957H524.21ZM529.277 282.858C529.196 283.066 529.056 283.246 528.873 283.373C528.69 283.501 528.473 283.572 528.25 283.577C526.881 283.577 526.264 282.961 526.264 281.626C526.264 280.804 526.264 279.092 527.874 279.092C529.483 279.092 529.449 280.701 529.449 281.797C529.393 282.167 529.278 282.526 529.106 282.858H529.277ZM528.182 209.827C514.075 142.308 504.626 120.258 503.051 112.075C525.545 112.075 542.288 112.486 555.676 113.068C580.499 118.272 601.727 144.979 601.727 172.849C601.727 235.232 568.344 279.435 556.36 297.41C547.938 280.599 537.289 255.125 528.011 209.827H528.182Z" fill="white"/>
<path d="M608.201 118.822C608.533 118.697 608.9 118.705 609.226 118.846C609.551 118.986 609.81 119.248 609.947 119.575C610.013 119.737 610.045 119.91 610.043 120.084C610.041 120.259 610.003 120.431 609.933 120.591C609.863 120.75 609.761 120.894 609.634 121.014C609.507 121.134 609.357 121.226 609.194 121.287C608.748 121.492 607.961 121.835 607.071 122.314C609.792 125.319 612.255 128.549 614.432 131.969C616.037 131.11 617.723 130.411 619.465 129.881C619.634 129.835 619.81 129.823 619.983 129.847C620.157 129.871 620.323 129.929 620.473 130.018C620.624 130.108 620.754 130.227 620.858 130.368C620.961 130.509 621.035 130.669 621.074 130.84C621.12 131.008 621.132 131.184 621.108 131.358C621.085 131.531 621.026 131.698 620.937 131.848C620.847 131.998 620.729 132.129 620.588 132.232C620.446 132.335 620.286 132.409 620.116 132.449C618.645 132.916 617.224 133.523 615.87 134.263C617.69 137.38 619.27 140.63 620.595 143.987L621.04 143.748L623.3 142.755C623.462 142.687 623.635 142.652 623.811 142.652C623.986 142.652 624.16 142.686 624.322 142.753C624.484 142.819 624.632 142.917 624.756 143.041C624.88 143.165 624.979 143.312 625.046 143.474C625.172 143.797 625.167 144.156 625.033 144.475C624.899 144.795 624.646 145.049 624.327 145.186L622.17 146.144L621.451 146.487C622.419 149.325 623.219 152.217 623.848 155.149C624.635 155.149 625.491 155.149 626.279 155.149H627.991C628.336 155.157 628.666 155.296 628.914 155.537C629.162 155.779 629.309 156.105 629.326 156.45C629.313 156.642 629.262 156.83 629.175 157.002C629.088 157.174 628.968 157.327 628.821 157.451C628.674 157.576 628.504 157.669 628.32 157.727C628.136 157.784 627.943 157.804 627.751 157.786H624.327C624.327 158.368 624.601 158.95 624.669 159.532C625.143 162.716 625.326 165.936 625.217 169.153C626.816 169.179 628.409 169.35 629.976 169.666C630.321 169.74 630.622 169.947 630.814 170.242C631.007 170.537 631.075 170.896 631.004 171.241C630.941 171.54 630.778 171.809 630.541 172.002C630.304 172.195 630.008 172.301 629.703 172.303H629.394C627.963 172.011 626.507 171.85 625.046 171.823C625.046 174.699 624.601 177.747 624.156 180.965C625.799 180.965 627.58 181.205 629.086 181.205C629.44 181.205 629.78 181.346 630.03 181.596C630.281 181.846 630.422 182.186 630.422 182.54C630.422 183.293 629.908 183.773 628.984 183.875C627.34 183.875 625.56 183.875 623.642 183.602C623.163 186.512 622.581 189.525 621.828 192.675C623.069 192.976 624.326 193.204 625.594 193.36C625.94 193.359 626.274 193.489 626.528 193.724C626.782 193.959 626.938 194.281 626.963 194.626C626.973 194.975 626.846 195.313 626.609 195.569C626.372 195.825 626.045 195.978 625.697 195.996C624.219 195.871 622.754 195.631 621.314 195.277C620.458 198.701 619.465 202.125 618.335 206.028C619.503 206.347 620.647 206.747 621.759 207.226C622.074 207.375 622.318 207.641 622.439 207.967C622.561 208.293 622.55 208.654 622.41 208.973C622.302 209.202 622.133 209.397 621.922 209.536C621.71 209.675 621.464 209.752 621.211 209.76C621.031 209.796 620.844 209.796 620.664 209.76C619.641 209.321 618.588 208.955 617.514 208.664C616.418 212.088 615.151 215.82 613.816 219.552C614.672 219.758 615.493 219.929 616.452 220.066C616.627 220.083 616.796 220.135 616.95 220.219C617.104 220.302 617.239 220.416 617.348 220.554C617.457 220.692 617.536 220.85 617.583 221.019C617.629 221.188 617.64 221.365 617.616 221.538C617.568 221.859 617.407 222.152 617.162 222.365C616.918 222.578 616.605 222.698 616.281 222.702C615.209 222.57 614.146 222.376 613.097 222.12C610.529 228.968 607.55 236.329 604.229 243.896C625.457 216.505 646.685 188.155 646.685 162.545C646.685 138.03 621.211 112.214 595.327 110.365H593.82C597.962 113.455 601.833 116.891 605.393 120.636C606.523 119.609 607.584 119.198 608.201 118.822Z" fill="white"/>
<path d="M524.058 261.358C523.031 261.358 522.141 262.591 522.141 264.063C522.141 265.535 522.997 266.733 524.024 266.768C524.656 266.347 525.098 265.695 525.256 264.953C525.256 263.001 524.64 261.358 524.058 261.358Z" fill="white"/>
<path d="M519.822 236.842C517.802 236.842 517.494 239.102 517.46 239.787C517.363 240.261 517.368 240.75 517.474 241.222C517.58 241.695 517.785 242.139 518.076 242.526C518.503 242.786 518.982 242.95 519.48 243.005C520.61 243.005 520.918 241.773 521.02 240.814C521.124 240.105 521.07 239.381 520.863 238.695C520.656 238.009 520.3 237.376 519.822 236.842Z" fill="white"/>
<path d="M506.718 178.157C506.291 178.137 505.874 178.284 505.554 178.567C505.001 179.911 504.846 181.384 505.109 182.813C505.417 186.237 506.067 187.093 507.026 187.093H507.197C508.67 187.093 509.834 184.765 509.662 182.471C509.491 180.177 508.841 178.157 506.718 178.157Z" fill="white"/>
<path d="M499.147 152.17C498.086 152.17 497.195 153.403 497.195 154.875C497.195 156.348 498.051 157.546 499.078 157.58C499.721 157.163 500.175 156.512 500.345 155.765C500.345 153.711 499.626 152.17 499.147 152.17Z" fill="white"/>
<path d="M401.261 149.157C401.667 153.518 403.613 157.591 406.75 160.647C409.888 163.703 414.011 165.541 418.381 165.831C422.755 165.697 426.9 163.841 429.913 160.667C432.927 157.494 434.565 153.259 434.473 148.883C434.56 146.953 434.238 145.026 433.527 143.229C432.816 141.432 431.733 139.806 430.349 138.457C428.965 137.109 427.311 136.068 425.496 135.404C423.681 134.741 421.746 134.468 419.819 134.606C419.511 133.75 422.661 127.005 437.178 121.15C456.112 157.614 494.596 231.878 485.112 325.727C485.112 325.898 468.438 330.931 465.528 329.733C467.582 325.692 465.528 308.128 449.401 308.128C445.091 308.306 441.007 310.105 437.967 313.165C434.926 316.225 433.152 320.32 433.001 324.631C433.001 335.964 440.602 345.722 461.179 345.722C482.887 345.722 516.749 327.13 569.511 327.13C569.511 326.651 569.271 326.172 569.203 325.727C569.614 273.718 655.964 220.1 655.964 163.709C655.785 155.09 653.682 146.619 649.807 138.918C645.933 131.217 640.386 124.479 633.572 119.198L642.508 119.643C661.511 120.465 665.893 100.778 662.675 99.5793C661.271 99.0657 660.929 101.908 640.659 101.908C621.212 101.908 600.874 100.298 578.516 99.6478C519.18 97.7989 396.913 83.1789 401.261 149.157ZM445.258 108.344C450.73 106.745 456.316 105.566 461.967 104.818H462.241C483.674 101.736 508.771 102.661 528.322 103.414L532.978 103.62C536.025 103.62 542.668 104.167 551.056 104.784C572.627 106.222 608.646 108.927 632.51 108.927H633.332C643.843 108.927 651.581 108.721 655.622 106.838C655.94 106.697 656.301 106.687 656.627 106.808C656.953 106.93 657.219 107.174 657.368 107.488C657.443 107.643 657.487 107.812 657.497 107.984C657.506 108.156 657.482 108.328 657.425 108.49C657.367 108.653 657.278 108.802 657.163 108.93C657.047 109.058 656.907 109.161 656.751 109.235C652.232 111.357 644.186 111.529 633.332 111.563H632.51C625.663 111.563 617.89 111.357 609.776 111.015C631.278 119.301 649.287 141.351 649.287 162.373C649.287 189.764 626.382 219.347 604.195 247.97C584.199 273.855 565.3 298.267 563.314 319.838V321.276L561.91 321.002C550.885 319.119 528.15 324.802 506.169 330.349C492.633 334.019 478.92 337.002 465.083 339.285C462.972 339.58 460.845 339.729 458.714 339.73C452.989 340.082 447.328 338.369 442.759 334.903C441.214 333.534 439.988 331.844 439.166 329.952C438.343 328.059 437.945 326.009 438 323.946C438.027 320.813 439.29 317.817 441.516 315.612C443.741 313.406 446.747 312.168 449.881 312.168C451.347 311.998 452.833 312.162 454.227 312.648C455.621 313.133 456.887 313.927 457.931 314.971C458.975 316.015 459.769 317.281 460.255 318.675C460.74 320.07 460.904 321.555 460.734 323.022C460.789 324.579 460.365 326.116 459.52 327.426C458.676 328.736 457.451 329.756 456.009 330.349C454.843 330.895 453.547 331.101 452.269 330.943C450.991 330.786 449.784 330.271 448.785 329.459C447.842 328.414 447.245 327.104 447.073 325.707C446.901 324.31 447.164 322.894 447.826 321.652C447.964 321.343 448.215 321.097 448.528 320.966C448.84 320.834 449.191 320.826 449.509 320.944C449.827 321.062 450.088 321.296 450.24 321.599C450.392 321.902 450.422 322.252 450.326 322.577C449.504 324.802 449.607 326.548 450.634 327.541C451.25 328.056 452.003 328.378 452.8 328.469C453.597 328.561 454.403 328.417 455.119 328.055C456.077 327.659 456.888 326.975 457.44 326.098C457.992 325.221 458.258 324.194 458.201 323.159C458.384 322.043 458.299 320.899 457.953 319.822C457.607 318.746 457.009 317.767 456.209 316.967C455.409 316.167 454.431 315.57 453.354 315.223C452.277 314.877 451.134 314.792 450.017 314.976C447.587 314.967 445.251 315.919 443.519 317.625C441.787 319.331 440.8 321.652 440.773 324.083C440.711 325.769 441.023 327.447 441.686 328.998C442.349 330.549 443.347 331.934 444.608 333.054C448.751 336.478 455.941 338.018 464.843 336.786C472.718 335.724 482.339 333.602 492.234 331.171C496.822 260.57 489.7 196.475 440.191 113.104C425.023 118.719 409.376 128.545 409.376 145.357C409.41 153.437 414.032 157.546 418.484 157.546C419.571 157.624 420.663 157.471 421.688 157.098C422.713 156.724 423.647 156.139 424.429 155.379C425.211 154.619 425.824 153.703 426.228 152.689C426.631 151.676 426.816 150.589 426.769 149.5C426.769 144.672 424.544 141.899 420.675 141.899C419.56 141.992 418.52 142.495 417.754 143.31C416.989 144.126 416.553 145.197 416.532 146.315C416.482 146.85 416.558 147.388 416.754 147.888C416.95 148.388 417.261 148.834 417.662 149.191C417.931 149.385 418.244 149.509 418.573 149.551C418.902 149.593 419.236 149.551 419.545 149.431C419.711 149.379 419.886 149.36 420.06 149.377C420.233 149.394 420.402 149.445 420.555 149.528C420.709 149.611 420.844 149.724 420.952 149.86C421.061 149.997 421.141 150.153 421.188 150.321C421.241 150.485 421.261 150.658 421.247 150.83C421.232 151.002 421.184 151.169 421.104 151.322C421.025 151.475 420.915 151.611 420.783 151.721C420.65 151.831 420.497 151.914 420.332 151.965C419.625 152.205 418.869 152.271 418.13 152.158C417.391 152.045 416.69 151.755 416.087 151.314C415.375 150.702 414.817 149.93 414.46 149.061C414.103 148.192 413.957 147.251 414.032 146.315C414.04 144.482 414.758 142.724 416.035 141.409C417.312 140.093 419.048 139.324 420.88 139.262C426.256 139.262 429.611 143.165 429.611 149.534C429.685 150.998 429.444 152.46 428.906 153.823C428.368 155.186 427.544 156.419 426.49 157.437C425.435 158.455 424.176 159.236 422.795 159.728C421.414 160.219 419.944 160.409 418.484 160.285C412.663 160.285 406.774 155.08 406.774 145.185C406.774 124.471 427.728 113.72 445.258 108.344Z" fill="white"/>
<path d="M514.726 207.123C513.665 207.123 513.391 207.431 513.254 207.636C513.117 207.842 512.637 209.451 512.774 211.539C513.014 214.278 513.459 217.394 514.76 217.394C516.404 217.394 516.849 213.696 516.951 212.156C517.264 210.617 516.956 209.018 516.096 207.705C515.919 207.52 515.706 207.373 515.471 207.273C515.235 207.173 514.982 207.121 514.726 207.123Z" fill="white"/>
</svg>
