<svg width="560" height="29" viewBox="0 0 560 29" fill="none" xmlns="http://www.w3.org/2000/svg">
<path d="M9.08105 18.813L12.7798 5.22656L17.5771 5.22656L11.5835 23L8.48291 23L9.08105 18.813ZM5.72412 5.22656L9.42285 18.813L10.0454 23L6.9082 23L0.951172 5.22656L5.72412 5.22656ZM24.6865 5.22656L24.6865 23L20.4141 23L20.4141 5.22656L24.6865 5.22656ZM34.7256 23L30.7827 23L30.8071 19.7041L34.7256 19.7041C35.5394 19.7041 36.2271 19.5088 36.7886 19.1182C37.3582 18.7275 37.7896 18.1457 38.0825 17.3726C38.3836 16.5913 38.5342 15.631 38.5342 14.4917V13.7227C38.5342 12.8682 38.4487 12.1195 38.2778 11.4766C38.1151 10.8255 37.8709 10.2843 37.5454 9.85303C37.2199 9.41357 36.813 9.08398 36.3247 8.86426C35.8446 8.64453 35.2912 8.53467 34.6646 8.53467L30.7095 8.53467L30.7095 5.22656L34.6646 5.22656C35.869 5.22656 36.9717 5.43408 37.9727 5.84912C38.9818 6.25602 39.8525 6.84196 40.585 7.60693C41.3255 8.36377 41.8952 9.26302 42.2939 10.3047C42.7008 11.3382 42.9043 12.4857 42.9043 13.7471V14.4917C42.9043 15.745 42.7008 16.8924 42.2939 17.9341C41.8952 18.9757 41.3296 19.875 40.5972 20.6318C39.8647 21.3887 38.998 21.9746 37.9971 22.3896C37.0042 22.7965 35.9137 23 34.7256 23ZM33.2363 5.22656L33.2363 23L28.9517 23L28.9517 5.22656L33.2363 5.22656ZM58.6196 19.7041L58.6196 23L49.147 23L49.147 19.7041L58.6196 19.7041ZM50.6729 5.22656L50.6729 23L46.3882 23L46.3882 5.22656L50.6729 5.22656ZM57.3989 12.2822L57.3989 15.4683L49.147 15.4683L49.147 12.2822L57.3989 12.2822ZM58.6562 5.22656L58.6562 8.53467L49.147 8.53467L49.147 5.22656L58.6562 5.22656ZM76.6665 13.7593V14.4795C76.6665 15.8385 76.4753 17.0592 76.0928 18.1416C75.7184 19.2158 75.1854 20.1354 74.4937 20.9004C73.8019 21.6572 72.984 22.2391 72.04 22.646C71.096 23.0448 70.0544 23.2441 68.915 23.2441C67.7676 23.2441 66.7178 23.0448 65.7656 22.646C64.8216 22.2391 63.9997 21.6572 63.2998 20.9004C62.6081 20.1354 62.071 19.2158 61.6885 18.1416C61.3141 17.0592 61.127 15.8385 61.127 14.4795V13.7593C61.127 12.4002 61.3141 11.1795 61.6885 10.0972C62.071 9.01481 62.604 8.09521 63.2876 7.33838C63.9793 6.5734 64.7972 5.99154 65.7412 5.59277C66.6934 5.18587 67.7432 4.98242 68.8906 4.98242C70.0299 4.98242 71.0716 5.18587 72.0156 5.59277C72.9678 5.99154 73.7897 6.5734 74.4814 7.33838C75.1732 8.09521 75.7103 9.01481 76.0928 10.0972C76.4753 11.1795 76.6665 12.4002 76.6665 13.7593ZM72.3208 14.4795V13.7349C72.3208 12.856 72.2435 12.0828 72.0889 11.4155C71.9424 10.7401 71.7227 10.1745 71.4297 9.71875C71.1367 9.26302 70.7746 8.92122 70.3433 8.69336C69.9201 8.45736 69.4359 8.33936 68.8906 8.33936C68.321 8.33936 67.8245 8.45736 67.4014 8.69336C66.9782 8.92122 66.6242 9.26302 66.3394 9.71875C66.0545 10.1745 65.8389 10.7401 65.6924 11.4155C65.554 12.0828 65.4849 12.856 65.4849 13.7349V14.4795C65.4849 15.3503 65.554 16.1234 65.6924 16.7988C65.8389 17.4661 66.0545 18.0317 66.3394 18.4956C66.6323 18.9595 66.9904 19.3094 67.4136 19.5454C67.8449 19.7814 68.3454 19.8994 68.915 19.8994C69.4603 19.8994 69.9445 19.7814 70.3677 19.5454C70.7909 19.3094 71.1449 18.9595 71.4297 18.4956C71.7227 18.0317 71.9424 17.4661 72.0889 16.7988C72.2435 16.1234 72.3208 15.3503 72.3208 14.4795Z" fill="black"/>
<path d="M480.447 16.9697L476.028 16.9697L476.028 13.6616L480.447 13.6616C481.049 13.6616 481.538 13.5599 481.912 13.3564C482.286 13.153 482.559 12.8722 482.73 12.5142C482.909 12.1479 482.999 11.737 482.999 11.2813C482.999 10.793 482.909 10.3413 482.73 9.92627C482.559 9.51123 482.286 9.17757 481.912 8.92529C481.538 8.66488 481.049 8.53467 480.447 8.53467L477.64 8.53467L477.64 23L473.355 23L473.355 5.22656L480.447 5.22656C481.871 5.22656 483.096 5.48698 484.122 6.00781C485.155 6.52865 485.949 7.24479 486.502 8.15625C487.055 9.05957 487.332 10.0931 487.332 11.2568C487.332 12.4043 487.055 13.4053 486.502 14.2598C485.949 15.1143 485.155 15.7816 484.122 16.2617C483.096 16.7337 481.871 16.9697 480.447 16.9697ZM502.864 12.2822V15.5781L493.746 15.5781V12.2822L502.864 12.2822ZM495.174 5.22656L495.174 23L490.889 23L490.889 5.22656L495.174 5.22656ZM505.745 5.22656L505.745 23L501.473 23L501.473 5.22656L505.745 5.22656ZM524.756 13.7593V14.4795C524.756 15.8385 524.565 17.0592 524.183 18.1416C523.808 19.2158 523.275 20.1354 522.583 20.9004C521.892 21.6572 521.074 22.2391 520.13 22.646C519.186 23.0448 518.144 23.2441 517.005 23.2441C515.857 23.2441 514.808 23.0448 513.855 22.646C512.911 22.2391 512.09 21.6572 511.39 20.9004C510.698 20.1354 510.161 19.2158 509.778 18.1416C509.404 17.0592 509.217 15.8385 509.217 14.4795V13.7593C509.217 12.4002 509.404 11.1795 509.778 10.0972C510.161 9.01481 510.694 8.09521 511.377 7.33838C512.069 6.5734 512.887 5.99154 513.831 5.59277C514.783 5.18587 515.833 4.98242 516.98 4.98242C518.12 4.98242 519.161 5.18587 520.105 5.59277C521.058 5.99154 521.88 6.5734 522.571 7.33838C523.263 8.09521 523.8 9.01481 524.183 10.0972C524.565 11.1795 524.756 12.4002 524.756 13.7593ZM520.411 14.4795V13.7349C520.411 12.856 520.333 12.0828 520.179 11.4155C520.032 10.7401 519.812 10.1745 519.52 9.71875C519.227 9.26302 518.864 8.92122 518.433 8.69336C518.01 8.45736 517.526 8.33936 516.98 8.33936C516.411 8.33936 515.914 8.45736 515.491 8.69336C515.068 8.92122 514.714 9.26302 514.429 9.71875C514.144 10.1745 513.929 10.7401 513.782 11.4155C513.644 12.0828 513.575 12.856 513.575 13.7349V14.4795C513.575 15.3503 513.644 16.1234 513.782 16.7988C513.929 17.4661 514.144 18.0317 514.429 18.4956C514.722 18.9595 515.08 19.3094 515.503 19.5454C515.935 19.7814 516.435 19.8994 517.005 19.8994C517.55 19.8994 518.034 19.7814 518.458 19.5454C518.881 19.3094 519.235 18.9595 519.52 18.4956C519.812 18.0317 520.032 17.4661 520.179 16.7988C520.333 16.1234 520.411 15.3503 520.411 14.4795ZM535.784 5.22656V23L531.5 23V5.22656L535.784 5.22656ZM541.131 5.22656V8.53467L526.275 8.53467V5.22656L541.131 5.22656ZM558.897 13.7593V14.4795C558.897 15.8385 558.706 17.0592 558.323 18.1416C557.949 19.2158 557.416 20.1354 556.724 20.9004C556.032 21.6572 555.215 22.2391 554.271 22.646C553.326 23.0448 552.285 23.2441 551.146 23.2441C549.998 23.2441 548.948 23.0448 547.996 22.646C547.052 22.2391 546.23 21.6572 545.53 20.9004C544.839 20.1354 544.301 19.2158 543.919 18.1416C543.545 17.0592 543.357 15.8385 543.357 14.4795V13.7593C543.357 12.4002 543.545 11.1795 543.919 10.0972C544.301 9.01481 544.834 8.09521 545.518 7.33838C546.21 6.5734 547.028 5.99154 547.972 5.59277C548.924 5.18587 549.974 4.98242 551.121 4.98242C552.26 4.98242 553.302 5.18587 554.246 5.59277C555.198 5.99154 556.02 6.5734 556.712 7.33838C557.404 8.09521 557.941 9.01481 558.323 10.0972C558.706 11.1795 558.897 12.4002 558.897 13.7593ZM554.551 14.4795V13.7349C554.551 12.856 554.474 12.0828 554.319 11.4155C554.173 10.7401 553.953 10.1745 553.66 9.71875C553.367 9.26302 553.005 8.92122 552.574 8.69336C552.151 8.45736 551.666 8.33936 551.121 8.33936C550.551 8.33936 550.055 8.45736 549.632 8.69336C549.209 8.92122 548.855 9.26302 548.57 9.71875C548.285 10.1745 548.069 10.7401 547.923 11.4155C547.785 12.0828 547.715 12.856 547.715 13.7349V14.4795C547.715 15.3503 547.785 16.1234 547.923 16.7988C548.069 17.4661 548.285 18.0317 548.57 18.4956C548.863 18.9595 549.221 19.3094 549.644 19.5454C550.075 19.7814 550.576 19.8994 551.146 19.8994C551.691 19.8994 552.175 19.7814 552.598 19.5454C553.021 19.3094 553.375 18.9595 553.66 18.4956C553.953 18.0317 554.173 17.4661 554.319 16.7988C554.474 16.1234 554.551 15.3503 554.551 14.4795Z" fill="black"/>
<line x1="452" y1="14.5" x2="98" y2="14.5" stroke="black"/>
</svg>
