<svg width="344" height="29" viewBox="0 0 344 29" fill="none" xmlns="http://www.w3.org/2000/svg">
<path d="M9.08105 18.813L12.7798 5.22656L17.5771 5.22656L11.5835 23L8.48291 23L9.08105 18.813ZM5.72412 5.22656L9.42285 18.813L10.0454 23L6.9082 23L0.951172 5.22656L5.72412 5.22656ZM24.6865 5.22656L24.6865 23L20.4141 23L20.4141 5.22656L24.6865 5.22656ZM34.7256 23L30.7827 23L30.8071 19.7041L34.7256 19.7041C35.5394 19.7041 36.2271 19.5088 36.7886 19.1182C37.3582 18.7275 37.7896 18.1457 38.0825 17.3726C38.3836 16.5913 38.5342 15.631 38.5342 14.4917V13.7227C38.5342 12.8682 38.4487 12.1195 38.2778 11.4766C38.1151 10.8255 37.8709 10.2843 37.5454 9.85303C37.2199 9.41357 36.813 9.08398 36.3247 8.86426C35.8446 8.64453 35.2912 8.53467 34.6646 8.53467L30.7095 8.53467L30.7095 5.22656L34.6646 5.22656C35.869 5.22656 36.9717 5.43408 37.9727 5.84912C38.9818 6.25602 39.8525 6.84196 40.585 7.60693C41.3255 8.36377 41.8952 9.26302 42.2939 10.3047C42.7008 11.3382 42.9043 12.4857 42.9043 13.7471V14.4917C42.9043 15.745 42.7008 16.8924 42.2939 17.9341C41.8952 18.9757 41.3296 19.875 40.5972 20.6318C39.8647 21.3887 38.998 21.9746 37.9971 22.3896C37.0042 22.7965 35.9137 23 34.7256 23ZM33.2363 5.22656L33.2363 23L28.9517 23L28.9517 5.22656L33.2363 5.22656ZM58.6196 19.7041L58.6196 23L49.147 23L49.147 19.7041L58.6196 19.7041ZM50.6729 5.22656L50.6729 23L46.3882 23L46.3882 5.22656L50.6729 5.22656ZM57.3989 12.2822L57.3989 15.4683L49.147 15.4683L49.147 12.2822L57.3989 12.2822ZM58.6562 5.22656L58.6562 8.53467L49.147 8.53467L49.147 5.22656L58.6562 5.22656ZM76.6665 13.7593V14.4795C76.6665 15.8385 76.4753 17.0592 76.0928 18.1416C75.7184 19.2158 75.1854 20.1354 74.4937 20.9004C73.8019 21.6572 72.984 22.2391 72.04 22.646C71.096 23.0448 70.0544 23.2441 68.915 23.2441C67.7676 23.2441 66.7178 23.0448 65.7656 22.646C64.8216 22.2391 63.9997 21.6572 63.2998 20.9004C62.6081 20.1354 62.071 19.2158 61.6885 18.1416C61.3141 17.0592 61.127 15.8385 61.127 14.4795V13.7593C61.127 12.4002 61.3141 11.1795 61.6885 10.0972C62.071 9.01481 62.604 8.09521 63.2876 7.33838C63.9793 6.5734 64.7972 5.99154 65.7412 5.59277C66.6934 5.18587 67.7432 4.98242 68.8906 4.98242C70.0299 4.98242 71.0716 5.18587 72.0156 5.59277C72.9678 5.99154 73.7897 6.5734 74.4814 7.33838C75.1732 8.09521 75.7103 9.01481 76.0928 10.0972C76.4753 11.1795 76.6665 12.4002 76.6665 13.7593ZM72.3208 14.4795V13.7349C72.3208 12.856 72.2435 12.0828 72.0889 11.4155C71.9424 10.7401 71.7227 10.1745 71.4297 9.71875C71.1367 9.26302 70.7746 8.92122 70.3433 8.69336C69.9201 8.45736 69.4359 8.33936 68.8906 8.33936C68.321 8.33936 67.8245 8.45736 67.4014 8.69336C66.9782 8.92122 66.6242 9.26302 66.3394 9.71875C66.0545 10.1745 65.8389 10.7401 65.6924 11.4155C65.554 12.0828 65.4849 12.856 65.4849 13.7349V14.4795C65.4849 15.3503 65.554 16.1234 65.6924 16.7988C65.8389 17.4661 66.0545 18.0317 66.3394 18.4956C66.6323 18.9595 66.9904 19.3094 67.4136 19.5454C67.8449 19.7814 68.3454 19.8994 68.915 19.8994C69.4603 19.8994 69.9445 19.7814 70.3677 19.5454C70.7909 19.3094 71.1449 18.9595 71.4297 18.4956C71.7227 18.0317 71.9424 17.4661 72.0889 16.7988C72.2435 16.1234 72.3208 15.3503 72.3208 14.4795Z" fill="black"/>
<path d="M264.447 16.9697L260.028 16.9697L260.028 13.6616L264.447 13.6616C265.049 13.6616 265.538 13.5599 265.912 13.3564C266.286 13.153 266.559 12.8722 266.73 12.5142C266.909 12.1479 266.999 11.737 266.999 11.2813C266.999 10.793 266.909 10.3413 266.73 9.92627C266.559 9.51123 266.286 9.17757 265.912 8.92529C265.538 8.66488 265.049 8.53467 264.447 8.53467L261.64 8.53467L261.64 23L257.355 23L257.355 5.22656L264.447 5.22656C265.871 5.22656 267.096 5.48698 268.122 6.00781C269.155 6.52865 269.949 7.24479 270.502 8.15625C271.055 9.05957 271.332 10.0931 271.332 11.2568C271.332 12.4043 271.055 13.4053 270.502 14.2598C269.949 15.1143 269.155 15.7816 268.122 16.2617C267.096 16.7337 265.871 16.9697 264.447 16.9697ZM286.864 12.2822V15.5781L277.746 15.5781V12.2822L286.864 12.2822ZM279.174 5.22656L279.174 23L274.889 23L274.889 5.22656L279.174 5.22656ZM289.745 5.22656L289.745 23L285.473 23L285.473 5.22656L289.745 5.22656ZM308.756 13.7593V14.4795C308.756 15.8385 308.565 17.0592 308.183 18.1416C307.808 19.2158 307.275 20.1354 306.583 20.9004C305.892 21.6572 305.074 22.2391 304.13 22.646C303.186 23.0448 302.144 23.2441 301.005 23.2441C299.857 23.2441 298.808 23.0448 297.855 22.646C296.911 22.2391 296.09 21.6572 295.39 20.9004C294.698 20.1354 294.161 19.2158 293.778 18.1416C293.404 17.0592 293.217 15.8385 293.217 14.4795V13.7593C293.217 12.4002 293.404 11.1795 293.778 10.0972C294.161 9.01481 294.694 8.09521 295.377 7.33838C296.069 6.5734 296.887 5.99154 297.831 5.59277C298.783 5.18587 299.833 4.98242 300.98 4.98242C302.12 4.98242 303.161 5.18587 304.105 5.59277C305.058 5.99154 305.88 6.5734 306.571 7.33838C307.263 8.09521 307.8 9.01481 308.183 10.0972C308.565 11.1795 308.756 12.4002 308.756 13.7593ZM304.411 14.4795V13.7349C304.411 12.856 304.333 12.0828 304.179 11.4155C304.032 10.7401 303.812 10.1745 303.52 9.71875C303.227 9.26302 302.864 8.92122 302.433 8.69336C302.01 8.45736 301.526 8.33936 300.98 8.33936C300.411 8.33936 299.914 8.45736 299.491 8.69336C299.068 8.92122 298.714 9.26302 298.429 9.71875C298.144 10.1745 297.929 10.7401 297.782 11.4155C297.644 12.0828 297.575 12.856 297.575 13.7349V14.4795C297.575 15.3503 297.644 16.1234 297.782 16.7988C297.929 17.4661 298.144 18.0317 298.429 18.4956C298.722 18.9595 299.08 19.3094 299.503 19.5454C299.935 19.7814 300.435 19.8994 301.005 19.8994C301.55 19.8994 302.034 19.7814 302.458 19.5454C302.881 19.3094 303.235 18.9595 303.52 18.4956C303.812 18.0317 304.032 17.4661 304.179 16.7988C304.333 16.1234 304.411 15.3503 304.411 14.4795ZM319.784 5.22656L319.784 23L315.5 23L315.5 5.22656L319.784 5.22656ZM325.131 5.22656V8.53467L310.275 8.53467V5.22656L325.131 5.22656ZM342.897 13.7593V14.4795C342.897 15.8385 342.706 17.0592 342.323 18.1416C341.949 19.2158 341.416 20.1354 340.724 20.9004C340.032 21.6572 339.215 22.2391 338.271 22.646C337.326 23.0448 336.285 23.2441 335.146 23.2441C333.998 23.2441 332.948 23.0448 331.996 22.646C331.052 22.2391 330.23 21.6572 329.53 20.9004C328.839 20.1354 328.301 19.2158 327.919 18.1416C327.545 17.0592 327.357 15.8385 327.357 14.4795V13.7593C327.357 12.4002 327.545 11.1795 327.919 10.0972C328.301 9.01481 328.834 8.09521 329.518 7.33838C330.21 6.5734 331.028 5.99154 331.972 5.59277C332.924 5.18587 333.974 4.98242 335.121 4.98242C336.26 4.98242 337.302 5.18587 338.246 5.59277C339.198 5.99154 340.02 6.5734 340.712 7.33838C341.404 8.09521 341.941 9.01481 342.323 10.0972C342.706 11.1795 342.897 12.4002 342.897 13.7593ZM338.551 14.4795V13.7349C338.551 12.856 338.474 12.0828 338.319 11.4155C338.173 10.7401 337.953 10.1745 337.66 9.71875C337.367 9.26302 337.005 8.92122 336.574 8.69336C336.151 8.45736 335.666 8.33936 335.121 8.33936C334.551 8.33936 334.055 8.45736 333.632 8.69336C333.209 8.92122 332.855 9.26302 332.57 9.71875C332.285 10.1745 332.069 10.7401 331.923 11.4155C331.785 12.0828 331.715 12.856 331.715 13.7349V14.4795C331.715 15.3503 331.785 16.1234 331.923 16.7988C332.069 17.4661 332.285 18.0317 332.57 18.4956C332.863 18.9595 333.221 19.3094 333.644 19.5454C334.075 19.7814 334.576 19.8994 335.146 19.8994C335.691 19.8994 336.175 19.7814 336.598 19.5454C337.021 19.3094 337.375 18.9595 337.66 18.4956C337.953 18.0317 338.173 17.4661 338.319 16.7988C338.474 16.1234 338.551 15.3503 338.551 14.4795Z" fill="black"/>
<line x1="236" y1="15.5" x2="98" y2="15.5" stroke="black"/>
</svg>
